<svg width="72" height="75" viewBox="0 0 72 75" xmlns="http://www.w3.org/2000/svg"><title>Group</title><g fill="none" fill-rule="evenodd"><path fill="#292A6E" d="M35.85 74.5l9.598-37.705H26.254z"/><path fill="#292A6E" d="M0 51.63h71.701V0H0z"/><path d="M19.99 40.352c-.22 0-.407-.026-.563-.08a1.914 1.914 0 0 1-.44-.213l-.055-.702h.196l.2.46c.085.097.192.177.321.242a.93.93 0 0 0 .423.098c.206 0 .368-.055.487-.165a.56.56 0 0 0 .18-.43.564.564 0 0 0-.134-.38 1.185 1.185 0 0 0-.396-.28l-.592-.293a2.047 2.047 0 0 1-.237-.13.968.968 0 0 1-.19-.158.67.67 0 0 1-.175-.465c0-.241.101-.44.301-.593.201-.153.477-.261.83-.322.335 0 .64.075.91.227v.693h-.148l-.2-.507a.819.819 0 0 0-.607-.241c-.195 0-.349.047-.462.14a.478.478 0 0 0-.169.385c0 .133.044.243.132.33.09.086.206.165.353.237l.572.279c.2.098.36.213.482.342a.7.7 0 0 1 .184.504.794.794 0 0 1-.262.596 1.392 1.392 0 0 1-.372.242 2.749 2.749 0 0 1-.57.184m2.921-.182l.416-.046v-2.961l-.416-.042.015-.106.66.009.641-.01.015.107-.396.042v1.343h1.545v-1.343l-.41-.042.014-.106.661.009.64-.01.015.107-.4.042v2.96l.4.047-.015.107-.64-.01-.66.01-.016-.107.411-.046V38.66h-1.545v1.464l.396.046-.015.107-.64-.01-.66.01zm5.65-1.61c0 .208.024.409.075.603.05.194.126.366.227.514.101.15.227.269.377.359.15.089.323.134.52.134a.89.89 0 0 0 .451-.111.935.935 0 0 0 .321-.308c.084-.13.148-.283.19-.46.043-.177.064-.366.064-.568a2.34 2.34 0 0 0-.076-.598 1.673 1.673 0 0 0-.228-.517 1.167 1.167 0 0 0-.374-.36.973.973 0 0 0-.516-.135.888.888 0 0 0-.452.11.959.959 0 0 0-.323.309c-.087.13-.15.284-.194.46a2.444 2.444 0 0 0-.063.568m1.164-1.62c.245 0 .467.042.668.124a1.52 1.52 0 0 1 .856.864c.08.2.12.416.12.649 0 .507-.142.908-.426 1.2-.283.294-.724.485-1.32.575a1.71 1.71 0 0 1-.668-.126 1.521 1.521 0 0 1-.856-.864 1.744 1.744 0 0 1-.12-.651c0-.505.142-.904.425-1.196.284-.293.724-.484 1.321-.574m4.243 1.751h.4c.115 0 .22-.02.314-.059a.664.664 0 0 0 .242-.165.773.773 0 0 0 .157-.252.886.886 0 0 0 .056-.32c0-.106-.014-.206-.042-.3a.667.667 0 0 0-.127-.242.585.585 0 0 0-.22-.16.822.822 0 0 0-.321-.059l-.46.033v1.524zm-.935-1.57l.015-.108.656.01.939-.01c.147 0 .284.017.413.051a1 1 0 0 1 .338.156.76.76 0 0 1 .225.26.77.77 0 0 1 .08.36.74.74 0 0 1-.102.398.932.932 0 0 1-.272.281 1.639 1.639 0 0 1-.386.193 3.324 3.324 0 0 1-.448.123h-.523v1.288l.499.046-.01.107-.743-.01-.666.01-.015-.107.416-.046v-2.96l-.416-.043zm5.157 1.57h.4c.114 0 .22-.02.313-.059a.676.676 0 0 0 .243-.165.77.77 0 0 0 .157-.252.886.886 0 0 0 .055-.32 1.08 1.08 0 0 0-.04-.3.669.669 0 0 0-.129-.242.585.585 0 0 0-.22-.16.816.816 0 0 0-.32-.059l-.46.033v1.524zm-.934-1.57l.015-.108.654.01.94-.01c.147 0 .284.017.413.051a1 1 0 0 1 .337.156c.096.07.172.157.226.26a.77.77 0 0 1 .08.36.732.732 0 0 1-.102.398.94.94 0 0 1-.272.281 1.666 1.666 0 0 1-.387.193 3.324 3.324 0 0 1-.447.123h-.523v1.288l.498.046-.01.107-.742-.01-.665.01-.015-.107.415-.046v-2.96l-.415-.043zm4.896 3.146l-.66.01-.015-.113.416-.041v-2.96l-.416-.042.015-.107.66.009.66-.01.01.108-.411.042v2.96l.41.04-.008.114zm3.141-2.714l-.102-.256v2.826l.41.046-.014.108-.48-.01-.513.01-.014-.108.415-.046v-2.942l-.407-.061.016-.106.45.009.455-.01 1.672 2.366.103.205v-2.422l-.41-.042.01-.106.479.009.514-.01.014.107-.416.042v3.128H47.2zm5.897 2.798a1.9 1.9 0 0 1-.65-.11 1.514 1.514 0 0 1-.911-.837 1.733 1.733 0 0 1-.136-.707c0-.264.042-.497.127-.702.085-.205.205-.38.362-.526.156-.145.346-.263.57-.35.223-.088.472-.148.746-.18a2.334 2.334 0 0 1 .682.102 2.353 2.353 0 0 1 .462.2v.698h-.146l-.23-.534a1.193 1.193 0 0 0-.311-.212 1.09 1.09 0 0 0-.496-.1 1.051 1.051 0 0 0-.864.413 1.467 1.467 0 0 0-.237.482 2.23 2.23 0 0 0-.083.63c0 .204.027.4.08.589.054.19.133.357.238.502.104.146.232.262.384.349.151.087.325.13.521.13.15 0 .282-.027.396-.083a.895.895 0 0 0 .259-.177v-.995l-.415-.051.009-.106.641.009.572-.01.01.107-.298.05v1.089a4.426 4.426 0 0 1-.57.195 4.853 4.853 0 0 1-.35.083c-.12.026-.241.042-.362.052M14.607 30.271c2.64 0 2.855-1.623 2.858-2.12 0-1.535-1.332-1.931-2.773-2.131-.872-.123-1.723-.305-1.723-1.03 0-.662.647-1.09 1.648-1.09.744.01 1.41.309 1.742.777h.685v-.69l-.04-.051c-.502-.631-1.293-.938-2.417-.938-.897 0-1.71.28-2.176.748a1.658 1.658 0 0 0-.484 1.224c0 1.51 1.381 1.824 2.674 2.002.897.117 1.813.351 1.813 1.178 0 .28-.129 1.19-1.797 1.19-.564 0-1.595-.15-2.19-1.143h-.683v.692c.59.945 1.498 1.383 2.863 1.383m10.24-1.723c-.445.459-1.054.7-1.76.7-.77 0-1.419-.28-1.875-.812-.4-.47-.625-1.103-.63-1.782-.012-.763.255-1.48.733-1.964.445-.453 1.058-.691 1.772-.691.8 0 1.451.278 1.887.802.37.444.582 1.067.6 1.753.022.767-.243 1.494-.727 1.994m1.767-1.963v-.001c-.019-1.76-1.118-3.537-3.527-3.537-1.765 0-3.547 1.109-3.547 3.587 0 .964.305 1.845.858 2.48.631.724 1.56 1.107 2.69 1.107.814 0 1.505-.196 2.054-.582l.022-.016.868.847h.731v-.741l-.848-.838.017-.023c.45-.622.692-1.432.682-2.283m5.353 3.655c.868.032 1.64-.235 2.171-.748.547-.528.836-1.303.836-2.24v-4.045h-1.04v4.045c0 .662-.202 1.203-.584 1.564-.35.333-.829.493-1.386.463-1.114-.043-1.806-.819-1.806-2.027v-4.045h-1.04v4.045c0 1.771 1.118 2.944 2.85 2.988m27.799-3.101v-.971h-3.849v-1.95h4.01v-1.02h-5.06v6.914h5.088V29.08h-4.038v-1.94zM40.56 24.26l1.526 3.435h-3.052l1.526-3.434zm1.906 4.387l.667 1.466h.766v-.781l-2.752-6.133h-1.174l-2.751 6.132v.782h.764l.658-1.466h3.822zm5.075-4.497h2.167c.654 0 1.359.412 1.359 1.318 0 .618-.359 1.28-1.369 1.28h-2.157v-2.599zm1.533 3.56l2.114 2.402h.672l.001-.675-1.651-1.839.061-.009c1.169-.169 1.867-.969 1.867-2.14 0-1.085-.761-2.25-2.43-2.25-.544 0-1.085-.004-1.626-.006a280.73 280.73 0 0 0-1.592-.005v6.924h1.051V27.7h1.523l.01.011zm-29.952-7.987v-7.16H17.83l-2.393 3.412-2.402-3.412h-1.291v7.16h1.088v-5.617l2.478 3.49h.213l2.509-3.49v5.617zm6.141-6.07l1.581 3.556h-3.162l1.581-3.556zm1.974 4.542l.691 1.518h.793v-.808l-2.85-6.353h-1.215l-2.85 6.352v.81h.791l.682-1.519h3.958zm5.257-4.657h2.244c.678 0 1.407.427 1.407 1.365 0 .641-.372 1.325-1.418 1.325h-2.233v-2.69zm1.587 3.688l2.19 2.487h.696v-.698L35.26 17.11l.063-.008c1.21-.175 1.932-1.004 1.932-2.218 0-1.122-.787-2.33-2.516-2.33-.563 0-1.123-.003-1.683-.005-.55-.003-1.098-.006-1.65-.006v7.171h1.089v-2.499h1.578l.009.012zm6.003 2.487h1.078v-7.16h-1.078zm10.273 0v-7.16h-1.089v5.205l-4.15-5.205h-.838v7.16h1.1v-5.164l4.15 5.164zm6.141-6.06l1.582 3.556h-3.163l1.581-3.556zm1.974 4.542l.691 1.518h.794v-.808l-2.85-6.353H55.89l-2.85 6.352v.81h.792l.681-1.519h3.958z" fill="#24DCA4"/></g></svg>