<svg xmlns="http://www.w3.org/2000/svg" viewBox="0 0 85 49.03"><defs><style>.cls-1{fill:#fff}</style></defs><title>Logo_Footer</title><g id="Layer_2" data-name="Layer 2"><path class="cls-1" d="M14.54 49a3.13 3.13 0 0 1-1-.14 3.36 3.36 0 0 1-.78-.38l-.09-1.24H13l.35.81a1.86 1.86 0 0 0 .57.43 1.63 1.63 0 0 0 .75.17 1.22 1.22 0 0 0 .86-.29 1 1 0 0 0 .31-.76 1 1 0 0 0-.23-.67 2.07 2.07 0 0 0-.7-.5l-1-.52a3.94 3.94 0 0 1-.42-.23 1.66 1.66 0 0 1-.34-.28 1.18 1.18 0 0 1-.22-.36 1.22 1.22 0 0 1-.08-.46 1.26 1.26 0 0 1 .53-1 3.34 3.34 0 0 1 1.43-.58 3.22 3.22 0 0 1 1.6.4v1.22h-.26l-.35-.89a1.7 1.7 0 0 0-.45-.31 1.45 1.45 0 0 0-.62-.12 1.23 1.23 0 0 0-.82.25.84.84 0 0 0-.3.68.78.78 0 0 0 .23.58 2.33 2.33 0 0 0 .62.42l1 .49a3 3 0 0 1 .85.6 1.24 1.24 0 0 1 .32.89 1.47 1.47 0 0 1-.11.55 1.43 1.43 0 0 1-.35.5 2.47 2.47 0 0 1-.66.43 4.83 4.83 0 0 1-.97.31zm5.15-.32l.73-.08v-5.19l-.73-.07v-.19h2.29v.19l-.7.07v2.37h2.73v-2.37l-.72-.07v-.19h2.29v.19l-.71.07v5.22l.71.08v.19h-2.29v-.19l.72-.08V46h-2.68v2.58l.7.08v.19h-2.29zM31.7 43a3.08 3.08 0 0 1 1.18.22 2.71 2.71 0 0 1 .91.61 2.74 2.74 0 0 1 .6.92 3.05 3.05 0 0 1 .21 1.14 2.91 2.91 0 0 1-.75 2.11 4 4 0 0 1-2.33 1 3 3 0 0 1-1.18-.22 2.79 2.79 0 0 1-.91-.61 2.68 2.68 0 0 1-.6-.92 3.08 3.08 0 0 1-.21-1.15 2.9 2.9 0 0 1 .75-2.1 4 4 0 0 1 2.33-1zm-2.05 2.86a4.19 4.19 0 0 0 .13 1.06 2.9 2.9 0 0 0 .4.91 2.1 2.1 0 0 0 .66.63 1.74 1.74 0 0 0 .91.24 1.57 1.57 0 0 0 .8-.2 1.66 1.66 0 0 0 .57-.54 2.58 2.58 0 0 0 .34-.81 4.3 4.3 0 0 0 .11-1 4.17 4.17 0 0 0-.13-1.05 3 3 0 0 0-.4-.91 2.1 2.1 0 0 0-.66-.64 1.72 1.72 0 0 0-.91-.24 1.57 1.57 0 0 0-.8.2 1.7 1.7 0 0 0-.57.54 2.51 2.51 0 0 0-.34.81 4.28 4.28 0 0 0-.11 1.01zm7.88-2.54v-.19h2.82a2.84 2.84 0 0 1 .73.09 1.79 1.79 0 0 1 .6.27 1.3 1.3 0 0 1 .4.46 1.36 1.36 0 0 1 .14.63 1.3 1.3 0 0 1-.18.7 1.67 1.67 0 0 1-.48.5 2.88 2.88 0 0 1-.68.34 5.87 5.87 0 0 1-.79.22h-.92v2.27l.88.08v.19h-2.48v-.19l.73-.08v-5.2zm1.65 2.77h.71a1.44 1.44 0 0 0 .55-.1 1.2 1.2 0 0 0 .43-.29 1.37 1.37 0 0 0 .28-.44 1.56 1.56 0 0 0 .1-.57 1.84 1.84 0 0 0-.07-.53 1.19 1.19 0 0 0-.22-.43 1 1 0 0 0-.39-.28 1.41 1.41 0 0 0-.57-.1l-.81.06zM45 43.33v-.19h2.82a2.84 2.84 0 0 1 .73.09 1.79 1.79 0 0 1 .6.27 1.3 1.3 0 0 1 .4.46 1.36 1.36 0 0 1 .14.63 1.3 1.3 0 0 1-.18.7 1.67 1.67 0 0 1-.48.5 2.88 2.88 0 0 1-.68.34 5.87 5.87 0 0 1-.79.22h-.92v2.27l.88.08v.19h-1.31L45 48.9v-.19l.73-.08v-5.22zm1.65 2.77h.71a1.44 1.44 0 0 0 .55-.1 1.2 1.2 0 0 0 .43-.29 1.37 1.37 0 0 0 .28-.44 1.56 1.56 0 0 0 .1-.57 1.84 1.84 0 0 0-.07-.53 1.19 1.19 0 0 0-.22-.43 1 1 0 0 0-.39-.28 1.41 1.41 0 0 0-.57-.1l-.81.06zm7 2.78h-1.16v-.2l.73-.07v-5.2l-.73-.07v-.19h2.32v.19l-.72.07v5.22l.72.07v.2zm5.54-4.78l-.19-.45v5l.72.08v.19h-1.76v-.19l.73-.08v-5.21l-.72-.11v-.19h1.59l2.95 4.17.18.36v-4.26l-.72-.07v-.19h1.76v.19l-.73.07v5.51h-.48zM69.54 49a3.41 3.41 0 0 1-1.15-.19 2.81 2.81 0 0 1-1-.56 2.66 2.66 0 0 1-.65-.91 3.05 3.05 0 0 1-.24-1.25 3.2 3.2 0 0 1 .22-1.24 2.61 2.61 0 0 1 .64-.93 3.17 3.17 0 0 1 1-.62 5.14 5.14 0 0 1 1.37-.3 4 4 0 0 1 .64 0 4.18 4.18 0 0 1 .57.13 4.06 4.06 0 0 1 .47.18l.35.18v1.23h-.26l-.41-.94a2.15 2.15 0 0 0-.55-.37 2.17 2.17 0 0 0-1.74 0 1.85 1.85 0 0 0-.66.54 2.56 2.56 0 0 0-.42.85 3.91 3.91 0 0 0-.15 1.2 3.78 3.78 0 0 0 .14 1 2.83 2.83 0 0 0 .42.88 2.12 2.12 0 0 0 .68.61 1.82 1.82 0 0 0 .92.23 1.57 1.57 0 0 0 .7-.15 1.59 1.59 0 0 0 .46-.31v-1.73l-.73-.09v-.19h2.13v.19l-.53.09v1.92l-.45.17-.56.17-.62.15a5.16 5.16 0 0 1-.59.06zM5 31.26c4.65 0 5-2.86 5-3.74 0-2.71-2.35-3.4-4.89-3.76-1.54-.22-3-.54-3-1.82S3.3 20 5.07 20a3.82 3.82 0 0 1 3.07 1.4h1.2v-1.22l-.07-.09A5.07 5.07 0 0 0 5 18.43a5.49 5.49 0 0 0-3.84 1.32 2.92 2.92 0 0 0-.85 2.16c0 2.66 2.43 3.22 4.71 3.53 1.58.21 3.2.62 3.2 2.08 0 .49-.23 2.1-3.17 2.1a4.35 4.35 0 0 1-3.86-2H0v1.22c1 1.65 2.64 2.42 5 2.42zm21.17-6.5c0-3.1-2-6.24-6.22-6.24a6 6 0 0 0-6.25 6.32 6.62 6.62 0 0 0 1.51 4.37 6.05 6.05 0 0 0 4.74 2 6.16 6.16 0 0 0 3.62-1l1.53 1.49h1.29v-1.4L25 28.83a6.75 6.75 0 0 0 1.22-4.07zm-3.07 3.46a4.2 4.2 0 0 1-3.1 1.24A4.2 4.2 0 0 1 16.69 28a5.14 5.14 0 0 1 .18-6.6A4.27 4.27 0 0 1 20 20.2a4.16 4.16 0 0 1 3.33 1.41 5 5 0 0 1 1.05 3.09 4.83 4.83 0 0 1-1.28 3.52zm12.55 3a5.16 5.16 0 0 0 3.83-1.32A5.32 5.32 0 0 0 41 25.94V18.8h-1.88v7.13a3.68 3.68 0 0 1-1 2.76 3.19 3.19 0 0 1-2.44.82c-2-.08-3.18-1.44-3.18-3.57V18.8h-1.87v7.13a4.91 4.91 0 0 0 5.02 5.27zm49-5.47V24h-6.77v-3.41h7.07v-1.8H76V31h9v-1.84h-7.12v-3.42zm-30.5 2.65l1.19 2.6h1.35v-1.4l-4.85-10.81h-2.07L44.92 29.6V31h1.35l1.16-2.58zm-3.35-7.74l2.69 6.05h-5.38zm15 6.08L69.54 31h1.19v-1.21l-2.91-3.24h.11a3.59 3.59 0 0 0 3.29-3.78 4 4 0 0 0-4.28-4h-5.68V31h1.85v-4.28h2.69zm-2.7-6.28h3.82a2.27 2.27 0 0 1 2.4 2.33A2.17 2.17 0 0 1 66.91 25h-3.8zM13 12.66V0h-2.27L6.51 6 2.28 0H0v12.66h1.92v-9.9l4.37 6.15h.38l4.42-6.15v9.9zM27.31 10l1.22 2.68h1.4v-1.46L24.91 0h-2.15l-5 11.2v1.43h1.4L20.34 10zm-3.48-8l2.79 6.27H21zm15.55 6.3l3.86 4.39h1.23v-1.28l-3-3.36h.11A3.72 3.72 0 0 0 45 4.13 4.09 4.09 0 0 0 40.54 0h-5.88v12.64h1.92v-4.4h2.78zm-2.8-6.5h4A2.35 2.35 0 0 1 43 4.16a2.24 2.24 0 0 1-2.5 2.34h-3.92zM50 0v12.64h1.9V0zm18.08 12.64V0h-1.92v9.2L58.84 0h-1.48v12.64h1.94v-9.1l7.32 9.1zM82.38 10l1.22 2.68H85v-1.46L80 0h-2.17l-5 11.2v1.43h1.4L75.41 10zM78.9 2l2.79 6.27h-5.57z" id="_1920_px" data-name="1920 px"/></g></svg>