<svg width="191" height="110" viewBox="0 0 191 110" xmlns="http://www.w3.org/2000/svg" xmlns:xlink="http://www.w3.org/1999/xlink"><title>Group</title><defs><path id="a" d="M0 5735h375V0H0z"/></defs><g transform="translate(-92 -302)" fill="none" fill-rule="evenodd"><path d="M124.993 411.962c-.86 0-1.6-.104-2.217-.312a7.486 7.486 0 0 1-1.735-.842l-.212-2.765h.77l.791 1.813c.334.378.755.695 1.263.952a3.641 3.641 0 0 0 1.668.385c.81 0 1.448-.217 1.918-.65.47-.434.703-.998.703-1.695 0-.585-.173-1.083-.519-1.492-.348-.409-.868-.779-1.563-1.108l-2.333-1.154a8.87 8.87 0 0 1-.934-.513 3.701 3.701 0 0 1-.752-.623 2.65 2.65 0 0 1-.5-.797 2.718 2.718 0 0 1-.185-1.034c0-.953.396-1.73 1.186-2.335.791-.605 1.88-1.029 3.267-1.273 1.324 0 2.52.3 3.587.897v2.73h-.579l-.79-1.997a3.8 3.8 0 0 0-1.012-.687c-.38-.177-.839-.266-1.379-.266-.77 0-1.379.186-1.822.56-.443.372-.665.875-.665 1.51 0 .525.174.96.521 1.3.347.342.81.654 1.388.935l2.255 1.1c.784.39 1.418.838 1.9 1.344.482.507.723 1.17.723 1.987a3.3 3.3 0 0 1-.24 1.228 3.199 3.199 0 0 1-.792 1.126c-.366.348-.855.666-1.465.952-.61.287-1.359.528-2.246.724zm11.512-.714l1.639-.183v-11.667l-1.64-.165.059-.421 2.602.037 2.526-.037.057.421-1.561.165v5.293h6.092v-5.293l-1.62-.165.059-.421 2.6.037 2.528-.037.057.421-1.581.165v11.667l1.58.183-.056.421-2.527-.037-2.601.037-.06-.421 1.62-.183v-5.769h-6.091v5.769l1.56.183-.056.421-2.526-.037-2.602.037zm22.261-6.347c0 .82.1 1.611.299 2.375.199.765.498 1.44.896 2.027a4.718 4.718 0 0 0 1.485 1.413c.59.354 1.272.532 2.044.532.68 0 1.275-.147 1.783-.44a3.716 3.716 0 0 0 1.263-1.21c.334-.514.584-1.12.75-1.817.168-.697.25-1.443.25-2.238 0-.807-.097-1.593-.296-2.357a6.617 6.617 0 0 0-.898-2.036 4.675 4.675 0 0 0-1.474-1.42c-.585-.356-1.263-.534-2.034-.534-.681 0-1.276.147-1.783.441a3.775 3.775 0 0 0-1.272 1.21c-.341.514-.595 1.12-.762 1.816a9.59 9.59 0 0 0-.251 2.238m4.589-6.382c.964 0 1.84.162 2.63.485a6.067 6.067 0 0 1 2.045 1.355 6.149 6.149 0 0 1 1.33 2.052c.314.787.472 1.64.472 2.555 0 2.002-.56 3.581-1.677 4.734-1.118 1.154-2.853 1.908-5.205 2.262-.964 0-1.841-.165-2.632-.495a6.234 6.234 0 0 1-2.044-1.355 6.007 6.007 0 0 1-1.33-2.05 6.887 6.887 0 0 1-.472-2.565c0-1.99.559-3.562 1.677-4.716 1.118-1.154 2.853-1.908 5.206-2.262m16.717 6.905h1.581c.45 0 .861-.076 1.234-.23a2.7 2.7 0 0 0 .955-.652c.263-.281.468-.612.617-.992a3.48 3.48 0 0 0 .221-1.267c0-.417-.054-.81-.164-1.176a2.65 2.65 0 0 0-.5-.955 2.3 2.3 0 0 0-.869-.634c-.353-.153-.774-.23-1.263-.23l-1.812.129v6.007zm-3.682-6.19l.058-.422 2.583.037 3.702-.037a6.38 6.38 0 0 1 1.63.202c.507.135.95.339 1.33.613.378.275.674.617.886 1.026.212.409.318.882.318 1.419 0 .61-.135 1.133-.404 1.566a3.746 3.746 0 0 1-1.07 1.108 6.46 6.46 0 0 1-1.524.76c-.572.202-1.16.364-1.764.486h-2.063v5.073l1.967.183-.038.422-2.93-.038-2.623.038-.058-.422 1.64-.183v-11.666l-1.64-.165zm20.32 6.19h1.582a3.2 3.2 0 0 0 1.233-.23c.374-.153.692-.37.955-.652.263-.281.469-.612.617-.992a3.48 3.48 0 0 0 .22-1.267c0-.417-.053-.81-.163-1.176a2.65 2.65 0 0 0-.501-.955 2.295 2.295 0 0 0-.867-.634c-.354-.153-.774-.23-1.263-.23l-1.812.129v6.007zm-3.682-6.19l.059-.422 2.583.037 3.7-.037c.579 0 1.122.068 1.63.202.508.135.95.339 1.33.613.38.275.675.617.888 1.026.212.409.317.882.317 1.419 0 .61-.135 1.133-.404 1.566-.27.434-.627.803-1.07 1.108a6.473 6.473 0 0 1-1.523.76c-.572.202-1.16.364-1.764.486h-2.063v5.073l1.967.183-.04.422-2.93-.038-2.621.038-.06-.422 1.64-.183v-11.666l-1.64-.165zm19.298 12.398l-2.603.037-.057-.44 1.64-.164v-11.667l-1.64-.165.057-.42 2.603.035 2.604-.036.038.421-1.62.165v11.667l1.62.164-.038.44zm12.38-10.695l-.405-1.008v11.136l1.62.183-.059.421-1.888-.037-2.025.037-.057-.421 1.637-.183v-11.593l-1.599-.239.057-.421 1.774.037 1.793-.037 6.593 9.323.405.805v-9.542l-1.619-.165.04-.421 1.888.037 2.024-.037.058.421-1.639.165v12.326h-1.079zm23.238 11.025c-.9 0-1.755-.144-2.564-.43a6.27 6.27 0 0 1-2.13-1.255c-.612-.549-1.096-1.23-1.456-2.042-.36-.812-.54-1.743-.54-2.794 0-1.037.167-1.958.502-2.765a5.85 5.85 0 0 1 1.425-2.069c.617-.574 1.367-1.035 2.246-1.383.881-.348 1.862-.583 2.941-.705.501 0 .976.036 1.427.11a9.113 9.113 0 0 1 3.085 1.08v2.747h-.579l-.907-2.106c-.296-.293-.703-.57-1.223-.833-.52-.263-1.173-.394-1.957-.394-.72 0-1.366.141-1.938.421a4.14 4.14 0 0 0-1.465 1.21c-.405.524-.717 1.156-.935 1.895-.219.74-.328 1.566-.328 2.481 0 .806.106 1.582.318 2.327.212.744.523 1.404.935 1.977a4.75 4.75 0 0 0 1.514 1.374c.598.342 1.281.513 2.053.513.591 0 1.111-.11 1.561-.33.451-.219.791-.45 1.023-.696v-3.919l-1.64-.202.04-.42 2.525.036 2.255-.037.04.421-1.177.202v4.286c-.282.122-.617.25-1.003.384-.386.135-.8.263-1.243.385-.444.122-.903.232-1.378.33a11.69 11.69 0 0 1-1.427.201m-144.16-39.723c10.405 0 11.253-6.398 11.266-8.36 0-6.046-5.253-7.61-10.93-8.397-3.437-.486-6.79-1.2-6.79-4.058 0-2.61 2.548-4.295 6.492-4.295 2.936.04 5.558 1.213 6.867 3.066h2.7v-2.72l-.166-.207c-1.973-2.485-5.086-3.692-9.517-3.692-3.536 0-6.743 1.102-8.576 2.948-1.278 1.286-1.919 2.908-1.906 4.82 0 5.95 5.44 7.192 10.537 7.89 3.533.467 7.145 1.385 7.145 4.647 0 1.099-.51 4.687-7.084 4.687-2.22 0-6.284-.588-8.63-4.507H92.5v2.729c2.321 3.723 5.904 5.449 11.284 5.449m40.355-6.791c-1.754 1.81-4.153 2.767-6.937 2.767-3.038 0-5.592-1.111-7.387-3.21-1.583-1.85-2.467-4.342-2.488-7.017-.044-3.01 1.009-5.832 2.89-7.742 1.756-1.781 4.172-2.724 6.985-2.724 3.147 0 5.718 1.093 7.438 3.16 1.456 1.753 2.294 4.206 2.357 6.909.093 3.024-.95 5.89-2.858 7.857m6.963-7.735v-.001c-.077-6.938-4.403-13.94-13.9-13.94-6.958 0-13.977 4.37-13.977 14.135 0 3.798 1.2 7.269 3.382 9.774 2.483 2.853 6.147 4.36 10.595 4.36 3.21 0 5.936-.77 8.098-2.294l.088-.061 3.419 3.339h2.883v-2.922l-3.342-3.301.065-.09c1.774-2.451 2.729-5.647 2.689-9m21.094 14.408c3.42.126 6.461-.926 8.558-2.95 2.155-2.081 3.295-5.132 3.295-8.826v-15.941h-4.103v15.94c0 2.61-.794 4.74-2.297 6.166-1.382 1.31-3.27 1.943-5.463 1.822-4.389-.168-7.117-3.228-7.117-7.987v-15.941h-4.102v15.94c0 6.98 4.408 11.602 11.23 11.778M281.753 359.9v-3.828h-15.168v-7.686h15.798v-4.023h-19.94v27.247H282.5v-4.064h-15.915V359.9zm-75.695-11.348l6.015 13.531h-12.03l6.015-13.53zm7.51 17.281l2.633 5.777h3.017l-.002-3.074-10.845-24.173h-4.625l-10.844 24.17v3.077h3.012l2.594-5.777h15.06zm20.003-17.721h8.538c2.58 0 5.357 1.627 5.357 5.198 0 2.437-1.417 5.04-5.395 5.04h-8.5v-10.238zm6.041 14.032l8.333 9.466h2.648l.001-2.656-6.502-7.25.24-.034c4.604-.667 7.353-3.822 7.353-8.438 0-4.272-2.996-8.87-9.576-8.87-2.14 0-4.273-.01-6.405-.018-2.088-.01-4.176-.021-6.274-.021v27.287h4.141v-9.51h6.003l.038.044zm-118.039-31.476V302.45h-5.086l-9.43 13.447-9.469-13.447H92.5v28.219h4.29v-22.14l9.765 13.757h.84l9.888-13.752v22.135zm24.203-23.92l6.23 14.014h-12.459l6.23-14.014zm7.778 17.898l2.726 5.981h3.125l-.002-3.183-11.23-25.035h-4.79l-11.23 25.033v3.185h3.12l2.685-5.981h15.596zm20.716-18.353h8.843c2.673 0 5.548 1.685 5.548 5.382 0 2.524-1.468 5.221-5.588 5.221h-8.803v-10.603zm6.257 14.532l8.63 9.803h2.743l.001-2.751-6.734-7.507.248-.036c4.769-.69 7.617-3.959 7.617-8.74 0-4.423-3.105-9.185-9.919-9.185-2.218 0-4.425-.01-6.633-.019-2.162-.01-4.325-.02-6.498-.02v28.257h4.288v-9.848h6.218l.04.046z" fill="#FFF"/><mask id="b" fill="#fff"><use xlink:href="#a"/></mask><path fill="#FFF" mask="url(#b)" d="M204.186 330.627h4.248v-28.218h-4.248zm40.484 0V302.41h-4.291v20.515l-16.355-20.515h-3.3v28.218h4.33v-20.35l16.353 20.35zm24.201-23.879l6.23 14.014h-12.459l6.23-14.014zm7.777 17.898l2.727 5.981h3.125l-.002-3.183-11.23-25.035h-4.792l-11.23 25.033v3.185h3.12l2.687-5.981h15.595z"/></g></svg>