<?xml version="1.0" encoding="UTF-8"?>
<svg width="72px" height="75px" viewBox="0 0 72 75" version="1.1" xmlns="http://www.w3.org/2000/svg" xmlns:xlink="http://www.w3.org/1999/xlink">
    <!-- Generator: Sketch 41 (35326) - http://www.bohemiancoding.com/sketch -->
    <title>Group</title>
    <desc>Created with Sketch.</desc>
    <defs></defs>
    <g id="Page-1" stroke="none" stroke-width="1" fill="none" fill-rule="evenodd">
        <g id="Marina-Square---Website-1366px" transform="translate(-1341.000000, -6161.000000)">
            <g id="Group-222" transform="translate(652.000000, 3.000000)">
                <g id="Group" transform="translate(689.000000, 6158.000000)">
                    <polygon id="Fill-154" fill="#292A6E" points="35.8506 74.5 45.4476 36.795 26.2536 36.795"></polygon>
                    <polygon id="Fill-155" fill="#292A6E" points="0 51.63 71.701 51.63 71.701 0 0 0"></polygon>
                    <path d="M19.9893,40.3516 C19.7703,40.3516 19.5833,40.3256 19.4273,40.2726 C19.2703,40.2196 19.1233,40.1486 18.9863,40.0586 L18.9323,39.3566 L19.1283,39.3566 L19.3283,39.8176 C19.4133,39.9136 19.5203,39.9936 19.6493,40.0586 C19.7783,40.1236 19.9193,40.1566 20.0723,40.1566 C20.2783,40.1566 20.4403,40.1016 20.5593,39.9916 C20.6783,39.8806 20.7383,39.7386 20.7383,39.5616 C20.7383,39.4136 20.6943,39.2866 20.6053,39.1826 C20.5173,39.0796 20.3853,38.9856 20.2093,38.9016 L19.6173,38.6086 C19.5323,38.5686 19.4533,38.5256 19.3803,38.4786 C19.3063,38.4316 19.2433,38.3786 19.1893,38.3206 C19.1353,38.2616 19.0933,38.1946 19.0623,38.1186 C19.0313,38.0416 19.0153,37.9556 19.0153,37.8556 C19.0153,37.6146 19.1163,37.4166 19.3163,37.2626 C19.5173,37.1096 19.7933,37.0016 20.1453,36.9406 C20.4813,36.9406 20.7853,37.0156 21.0553,37.1676 L21.0553,37.8606 L20.9083,37.8606 L20.7083,37.3536 C20.6333,37.2826 20.5483,37.2246 20.4513,37.1796 C20.3553,37.1346 20.2393,37.1126 20.1013,37.1126 C19.9063,37.1126 19.7523,37.1596 19.6393,37.2536 C19.5273,37.3486 19.4703,37.4766 19.4703,37.6376 C19.4703,37.7706 19.5143,37.8806 19.6023,37.9676 C19.6913,38.0536 19.8083,38.1326 19.9553,38.2046 L20.5273,38.4836 C20.7263,38.5816 20.8863,38.6966 21.0093,38.8256 C21.1313,38.9536 21.1933,39.1216 21.1933,39.3296 C21.1933,39.4346 21.1723,39.5386 21.1313,39.6406 C21.0913,39.7426 21.0243,39.8376 20.9313,39.9256 C20.8383,40.0146 20.7143,40.0946 20.5593,40.1676 C20.4043,40.2406 20.2143,40.3016 19.9893,40.3516" id="Fill-156" fill="#24DCA4"></path>
                    <polygon id="Fill-157" fill="#24DCA4" points="22.9102 40.1699 23.3262 40.1239 23.3262 37.1629 22.9102 37.1209 22.9252 37.0149 23.5852 37.0239 24.2262 37.0149 24.2412 37.1209 23.8452 37.1629 23.8452 38.5059 25.3902 38.5059 25.3902 37.1629 24.9792 37.1209 24.9942 37.0149 25.6552 37.0239 26.2952 37.0149 26.3102 37.1209 25.9092 37.1629 25.9092 40.1239 26.3102 40.1699 26.2952 40.2769 25.6552 40.2679 24.9942 40.2769 24.9792 40.1699 25.3902 40.1239 25.3902 38.6599 23.8452 38.6599 23.8452 40.1239 24.2412 40.1699 24.2262 40.2769 23.5852 40.2679 22.9252 40.2769"></polygon>
                    <path d="M28.5591,38.5596 C28.5591,38.7676 28.5841,38.9686 28.6351,39.1626 C28.6851,39.3566 28.7611,39.5286 28.8621,39.6766 C28.9631,39.8266 29.0891,39.9456 29.2391,40.0356 C29.3891,40.1246 29.5621,40.1696 29.7581,40.1696 C29.9311,40.1696 30.0811,40.1326 30.2101,40.0586 C30.3391,39.9846 30.4461,39.8816 30.5311,39.7506 C30.6151,39.6216 30.6791,39.4676 30.7211,39.2906 C30.7641,39.1136 30.7851,38.9246 30.7851,38.7226 C30.7851,38.5176 30.7601,38.3186 30.7091,38.1246 C30.6591,37.9306 30.5821,37.7586 30.4811,37.6076 C30.3801,37.4566 30.2561,37.3366 30.1071,37.2476 C29.9591,37.1576 29.7871,37.1126 29.5911,37.1126 C29.4181,37.1126 29.2671,37.1496 29.1391,37.2236 C29.0101,37.2986 28.9021,37.4006 28.8161,37.5316 C28.7291,37.6616 28.6651,37.8156 28.6221,37.9926 C28.5801,38.1686 28.5591,38.3586 28.5591,38.5596 M29.7231,36.9406 C29.9681,36.9406 30.1901,36.9816 30.3911,37.0636 C30.5921,37.1456 30.7651,37.2596 30.9101,37.4076 C31.0551,37.5546 31.1671,37.7276 31.2471,37.9276 C31.3271,38.1276 31.3671,38.3436 31.3671,38.5766 C31.3671,39.0836 31.2251,39.4846 30.9411,39.7776 C30.6581,40.0706 30.2171,40.2616 29.6211,40.3516 C29.3761,40.3516 29.1531,40.3096 28.9531,40.2256 C28.7521,40.1426 28.5791,40.0276 28.4341,39.8816 C28.2891,39.7366 28.1771,39.5626 28.0971,39.3616 C28.0171,39.1606 27.9771,38.9436 27.9771,38.7106 C27.9771,38.2056 28.1191,37.8066 28.4021,37.5146 C28.6861,37.2216 29.1261,37.0306 29.7231,36.9406" id="Fill-158" fill="#24DCA4"></path>
                    <path d="M33.9658,38.6924 L34.3668,38.6924 C34.4808,38.6924 34.5858,38.6724 34.6798,38.6334 C34.7748,38.5944 34.8558,38.5404 34.9218,38.4684 C34.9888,38.3974 35.0408,38.3134 35.0788,38.2164 C35.1158,38.1204 35.1348,38.0134 35.1348,37.8954 C35.1348,37.7904 35.1208,37.6904 35.0928,37.5964 C35.0658,37.5044 35.0228,37.4224 34.9658,37.3544 C34.9088,37.2864 34.8358,37.2324 34.7458,37.1934 C34.6558,37.1554 34.5488,37.1354 34.4248,37.1354 L33.9658,37.1684 L33.9658,38.6924 Z M33.0308,37.1214 L33.0458,37.0144 L33.7018,37.0234 L34.6408,37.0144 C34.7878,37.0144 34.9248,37.0314 35.0538,37.0654 C35.1828,37.0994 35.2958,37.1514 35.3918,37.2214 C35.4878,37.2914 35.5628,37.3784 35.6168,37.4814 C35.6708,37.5854 35.6968,37.7054 35.6968,37.8414 C35.6968,37.9974 35.6628,38.1294 35.5948,38.2394 C35.5268,38.3494 35.4358,38.4434 35.3228,38.5204 C35.2108,38.5974 35.0818,38.6624 34.9368,38.7134 C34.7918,38.7644 34.6428,38.8054 34.4888,38.8364 L33.9658,38.8364 L33.9658,40.1244 L34.4648,40.1704 L34.4548,40.2774 L33.7118,40.2674 L33.0458,40.2774 L33.0308,40.1704 L33.4468,40.1244 L33.4468,37.1634 L33.0308,37.1214 Z" id="Fill-159" fill="#24DCA4"></path>
                    <path d="M38.1875,38.6924 L38.5885,38.6924 C38.7025,38.6924 38.8075,38.6724 38.9015,38.6334 C38.9965,38.5944 39.0775,38.5404 39.1445,38.4684 C39.2105,38.3974 39.2635,38.3134 39.3005,38.2164 C39.3375,38.1204 39.3565,38.0134 39.3565,37.8954 C39.3565,37.7904 39.3425,37.6904 39.3155,37.5964 C39.2875,37.5044 39.2455,37.4224 39.1875,37.3544 C39.1305,37.2864 39.0575,37.2324 38.9675,37.1934 C38.8775,37.1554 38.7715,37.1354 38.6475,37.1354 L38.1875,37.1684 L38.1875,38.6924 Z M37.2535,37.1214 L37.2685,37.0144 L37.9235,37.0234 L38.8625,37.0144 C39.0095,37.0144 39.1465,37.0314 39.2755,37.0654 C39.4045,37.0994 39.5175,37.1514 39.6135,37.2214 C39.7095,37.2914 39.7845,37.3784 39.8385,37.4814 C39.8925,37.5854 39.9195,37.7054 39.9195,37.8414 C39.9195,37.9974 39.8855,38.1294 39.8165,38.2394 C39.7485,38.3494 39.6575,38.4434 39.5455,38.5204 C39.4325,38.5974 39.3035,38.6624 39.1585,38.7134 C39.0135,38.7644 38.8645,38.8054 38.7105,38.8364 L38.1875,38.8364 L38.1875,40.1244 L38.6865,40.1704 L38.6765,40.2774 L37.9335,40.2674 L37.2685,40.2774 L37.2535,40.1704 L37.6685,40.1244 L37.6685,37.1634 L37.2535,37.1214 Z" id="Fill-160" fill="#24DCA4"></path>
                    <polygon id="Fill-161" fill="#24DCA4" points="42.1499 40.2676 41.4899 40.2776 41.4749 40.1646 41.8909 40.1236 41.8909 37.1636 41.4749 37.1216 41.4899 37.0146 42.1499 37.0236 42.8109 37.0146 42.8199 37.1216 42.4089 37.1636 42.4089 40.1236 42.8199 40.1646 42.8109 40.2776"></polygon>
                    <polygon id="Fill-162" fill="#24DCA4" points="45.2915 37.5537 45.1885 37.2977 45.1885 40.1237 45.5995 40.1697 45.5845 40.2777 45.1055 40.2677 44.5915 40.2777 44.5775 40.1697 44.9935 40.1237 44.9935 37.1817 44.5865 37.1207 44.6015 37.0147 45.0515 37.0237 45.5065 37.0147 47.1795 39.3797 47.2825 39.5847 47.2825 37.1627 46.8715 37.1207 46.8815 37.0147 47.3605 37.0237 47.8745 37.0147 47.8895 37.1207 47.4735 37.1627 47.4735 40.2907 47.1995 40.2907"></polygon>
                    <path d="M51.188,40.3516 C50.96,40.3516 50.743,40.3156 50.538,40.2426 C50.332,40.1696 50.152,40.0636 49.997,39.9236 C49.842,39.7846 49.719,39.6116 49.627,39.4056 C49.536,39.2006 49.491,38.9636 49.491,38.6976 C49.491,38.4336 49.533,38.2006 49.618,37.9956 C49.703,37.7906 49.823,37.6166 49.98,37.4696 C50.136,37.3246 50.326,37.2066 50.55,37.1196 C50.773,37.0316 51.022,36.9716 51.296,36.9406 C51.423,36.9406 51.543,36.9496 51.658,36.9676 C51.772,36.9866 51.879,37.0116 51.978,37.0416 C52.078,37.0736 52.167,37.1066 52.245,37.1426 C52.323,37.1776 52.388,37.2106 52.44,37.2426 L52.44,37.9396 L52.294,37.9396 L52.064,37.4056 C51.989,37.3306 51.885,37.2596 51.753,37.1936 C51.621,37.1266 51.456,37.0936 51.257,37.0936 C51.074,37.0936 50.91,37.1286 50.765,37.2006 C50.62,37.2716 50.496,37.3736 50.393,37.5066 C50.291,37.6406 50.211,37.8006 50.156,37.9886 C50.101,38.1756 50.073,38.3856 50.073,38.6186 C50.073,38.8226 50.1,39.0196 50.153,39.2076 C50.207,39.3976 50.286,39.5646 50.391,39.7096 C50.495,39.8556 50.623,39.9716 50.775,40.0586 C50.926,40.1456 51.1,40.1886 51.296,40.1886 C51.446,40.1886 51.578,40.1616 51.692,40.1056 C51.806,40.0496 51.893,39.9906 51.951,39.9286 L51.951,38.9336 L51.536,38.8826 L51.545,38.7766 L52.186,38.7856 L52.758,38.7766 L52.768,38.8826 L52.47,38.9336 L52.47,40.0216 C52.398,40.0526 52.313,40.0846 52.215,40.1196 C52.118,40.1536 52.012,40.1856 51.9,40.2166 C51.788,40.2476 51.671,40.2756 51.55,40.2996 C51.43,40.3256 51.309,40.3416 51.188,40.3516" id="Fill-163" fill="#24DCA4"></path>
                    <path d="M14.6074,30.2715 C17.2474,30.2715 17.4624,28.6485 17.4654,28.1505 C17.4654,26.6165 16.1334,26.2195 14.6924,26.0195 C13.8204,25.8965 12.9694,25.7145 12.9694,24.9895 C12.9694,24.3285 13.6164,23.9005 14.6174,23.9005 C15.3614,23.9105 16.0274,24.2085 16.3594,24.6775 L17.0444,24.6775 L17.0444,23.9875 L17.0034,23.9355 C16.5024,23.3045 15.7114,22.9985 14.5874,22.9985 C13.6904,22.9985 12.8764,23.2785 12.4114,23.7465 C12.0874,24.0725 11.9244,24.4845 11.9274,24.9695 C11.9274,26.4795 13.3084,26.7935 14.6014,26.9715 C15.4984,27.0895 16.4144,27.3235 16.4144,28.1505 C16.4144,28.4295 16.2854,29.3395 14.6174,29.3395 C14.0534,29.3395 13.0224,29.1905 12.4274,28.1965 L11.7444,28.1965 L11.7444,28.8885 C12.3334,29.8345 13.2424,30.2715 14.6074,30.2715" id="Fill-164" fill="#24DCA4"></path>
                    <path d="M24.8472,28.5488 C24.4022,29.0078 23.7932,29.2498 23.0872,29.2498 C22.3162,29.2498 21.6682,28.9688 21.2122,28.4368 C20.8112,27.9668 20.5872,27.3338 20.5812,26.6548 C20.5702,25.8918 20.8372,25.1758 21.3152,24.6908 C21.7602,24.2378 22.3732,23.9998 23.0872,23.9998 C23.8862,23.9998 24.5382,24.2778 24.9742,24.8018 C25.3442,25.2458 25.5562,25.8688 25.5732,26.5548 C25.5962,27.3218 25.3312,28.0488 24.8472,28.5488 M26.6142,26.5858 L26.6142,26.5848 C26.5952,24.8248 25.4962,23.0478 23.0872,23.0478 C21.3222,23.0478 19.5402,24.1568 19.5402,26.6348 C19.5402,27.5988 19.8452,28.4798 20.3982,29.1148 C21.0292,29.8388 21.9582,30.2218 23.0872,30.2218 C23.9022,30.2218 24.5932,30.0258 25.1422,29.6398 L25.1642,29.6238 L26.0322,30.4708 L26.7632,30.4708 L26.7632,29.7298 L25.9152,28.8918 L25.9322,28.8688 C26.3822,28.2468 26.6242,27.4368 26.6142,26.5858" id="Fill-165" fill="#24DCA4"></path>
                    <path d="M31.9673,30.2412 C32.8353,30.2732 33.6063,30.0062 34.1383,29.4932 C34.6853,28.9652 34.9743,28.1902 34.9743,27.2532 L34.9743,23.2082 L33.9333,23.2082 L33.9333,27.2532 C33.9333,27.9152 33.7323,28.4562 33.3503,28.8172 C33.0003,29.1502 32.5213,29.3102 31.9643,29.2802 C30.8503,29.2372 30.1583,28.4612 30.1583,27.2532 L30.1583,23.2082 L29.1173,23.2082 L29.1173,27.2532 C29.1173,29.0242 30.2363,30.1972 31.9673,30.2412" id="Fill-166" fill="#24DCA4"></path>
                    <polygon id="Fill-167" fill="#24DCA4" points="59.7671 27.1406 59.7671 26.1686 55.9181 26.1686 55.9181 24.2186 59.9271 24.2186 59.9271 23.1986 54.8681 23.1986 54.8681 30.1126 59.9561 30.1126 59.9561 29.0806 55.9181 29.0806 55.9181 27.1406"></polygon>
                    <path d="M40.5596,24.2607 L42.0856,27.6947 L39.0336,27.6947 L40.5596,24.2607 Z M42.4656,28.6467 L43.1326,30.1127 L43.8986,30.1127 L43.8986,29.3317 L41.1466,23.1987 L39.9726,23.1987 L37.2216,29.3307 L37.2216,30.1127 L37.9856,30.1127 L38.6436,28.6467 L42.4656,28.6467 Z" id="Fill-168" fill="#24DCA4"></path>
                    <path d="M47.541,24.1494 L49.708,24.1494 C50.362,24.1494 51.067,24.5624 51.067,25.4684 C51.067,26.0864 50.708,26.7474 49.698,26.7474 L47.541,26.7474 L47.541,24.1494 Z M49.074,27.7104 L51.188,30.1124 L51.86,30.1124 L51.861,29.4374 L50.21,27.5984 L50.271,27.5894 C51.44,27.4204 52.138,26.6204 52.138,25.4484 C52.138,24.3644 51.377,23.1984 49.708,23.1984 C49.164,23.1984 48.623,23.1954 48.082,23.1934 C47.553,23.1904 47.022,23.1884 46.49,23.1884 L46.49,30.1124 L47.541,30.1124 L47.541,27.6994 L49.064,27.6994 L49.074,27.7104 Z" id="Fill-169" fill="#24DCA4"></path>
                    <polygon id="Fill-170" fill="#24DCA4" points="19.1216 19.7227 19.1216 12.5627 17.8306 12.5627 15.4376 15.9747 13.0356 12.5627 11.7446 12.5627 11.7446 19.7227 12.8326 19.7227 12.8326 14.1057 15.3106 17.5957 15.5236 17.5957 18.0326 14.1067 18.0326 19.7227"></polygon>
                    <path d="M25.2632,13.6533 L26.8442,17.2093 L23.6822,17.2093 L25.2632,13.6533 Z M27.2372,18.1953 L27.9282,19.7133 L28.7212,19.7133 L28.7212,18.9053 L25.8712,12.5523 L24.6562,12.5523 L21.8052,18.9043 L21.8052,19.7133 L22.5972,19.7133 L23.2792,18.1953 L27.2372,18.1953 Z" id="Fill-171" fill="#24DCA4"></path>
                    <path d="M32.4937,13.5381 L34.7377,13.5381 C35.4157,13.5381 36.1447,13.9651 36.1447,14.9031 C36.1447,15.5441 35.7727,16.2281 34.7267,16.2281 L32.4937,16.2281 L32.4937,13.5381 Z M34.0807,17.2261 L36.2707,19.7131 L36.9667,19.7131 L36.9677,19.0151 L35.2587,17.1091 L35.3217,17.1011 C36.5317,16.9261 37.2537,16.0971 37.2537,14.8831 C37.2537,13.7611 36.4667,12.5531 34.7377,12.5531 C34.1747,12.5531 33.6147,12.5501 33.0547,12.5481 C32.5057,12.5451 31.9567,12.5421 31.4057,12.5421 L31.4057,19.7131 L32.4937,19.7131 L32.4937,17.2141 L34.0717,17.2141 L34.0807,17.2261 Z" id="Fill-172" fill="#24DCA4"></path>
                    <polygon id="Fill-173" fill="#24DCA4" points="40.084 19.713 41.162 19.713 41.162 12.553 40.084 12.553"></polygon>
                    <polygon id="Fill-174" fill="#24DCA4" points="50.3574 19.7129 50.3574 12.5529 49.2684 12.5529 49.2684 17.7579 45.1184 12.5529 44.2804 12.5529 44.2804 19.7129 45.3794 19.7129 45.3794 14.5489 49.5294 19.7129"></polygon>
                    <path d="M56.4985,13.6533 L58.0795,17.2093 L54.9175,17.2093 L56.4985,13.6533 Z M58.4725,18.1953 L59.1635,19.7133 L59.9565,19.7133 L59.9565,18.9053 L57.1065,12.5523 L55.8905,12.5523 L53.0405,18.9043 L53.0405,19.7133 L53.8325,19.7133 L54.5145,18.1953 L58.4725,18.1953 Z" id="Fill-175" fill="#24DCA4"></path>
                </g>
            </g>
        </g>
    </g>
</svg>