<svg xmlns="http://www.w3.org/2000/svg" viewBox="0 0 541 90.64"><defs><style>.cls-1{fill:#fff;}</style></defs><title>Logo_CoverImage</title><g id="Layer_2" data-name="Layer 2"><g id="_1920_px" data-name="1920 px"><path class="cls-1" d="M188.29,90.64a9.2,9.2,0,0,1-2.92-.41,9.89,9.89,0,0,1-2.28-1.11l-.28-3.64h1l1,2.38a5.47,5.47,0,0,0,1.66,1.25,4.79,4.79,0,0,0,2.19.51,3.57,3.57,0,0,0,2.52-.85,2.89,2.89,0,0,0,.93-2.23,2.94,2.94,0,0,0-.68-2,6.07,6.07,0,0,0-2.05-1.46l-3.07-1.52a11.58,11.58,0,0,1-1.23-.67,4.87,4.87,0,0,1-1-.82,3.48,3.48,0,0,1-.66-1,3.58,3.58,0,0,1-.24-1.36,3.7,3.7,0,0,1,1.56-3.07A9.82,9.82,0,0,1,189.1,73a9.48,9.48,0,0,1,4.72,1.18v3.59h-.76l-1-2.63a5,5,0,0,0-1.33-.9,4.27,4.27,0,0,0-1.81-.35,3.61,3.61,0,0,0-2.4.73,2.46,2.46,0,0,0-.87,2,2.3,2.3,0,0,0,.68,1.71,6.84,6.84,0,0,0,1.83,1.23l3,1.45a8.87,8.87,0,0,1,2.5,1.77,3.64,3.64,0,0,1,1,2.61,4.32,4.32,0,0,1-.32,1.61,4.2,4.2,0,0,1-1,1.48,7.28,7.28,0,0,1-1.93,1.25A14.2,14.2,0,0,1,188.29,90.64Zm15.14-.94,2.16-.24V74.11l-2.16-.22.08-.55,3.42,0,3.32,0,.08.55-2.05.22v7h8v-7l-2.13-.22.08-.55,3.42,0,3.32,0,.08.55-2.08.22V89.45l2.08.24-.08.55-3.32,0-3.42,0-.08-.55,2.13-.24V81.87h-8v7.59l2.05.24-.08.55-3.32,0-3.42,0ZM238.74,73a9.07,9.07,0,0,1,3.46.64,8,8,0,0,1,2.69,1.78,8.06,8.06,0,0,1,1.75,2.7,9,9,0,0,1,.62,3.36,8.57,8.57,0,0,1-2.21,6.23q-2.21,2.28-6.85,3a8.91,8.91,0,0,1-3.46-.65,8.2,8.2,0,0,1-2.69-1.78,7.89,7.89,0,0,1-1.75-2.7,9.06,9.06,0,0,1-.62-3.37,8.54,8.54,0,0,1,2.21-6.2Q234.1,73.65,238.74,73Zm-6,8.39a12.31,12.31,0,0,0,.39,3.12,8.53,8.53,0,0,0,1.18,2.67,6.18,6.18,0,0,0,2,1.86,5.12,5.12,0,0,0,2.69.7,4.6,4.6,0,0,0,2.34-.58,4.88,4.88,0,0,0,1.66-1.59,7.59,7.59,0,0,0,1-2.39,12.63,12.63,0,0,0,.33-2.94,12.25,12.25,0,0,0-.39-3.1,8.69,8.69,0,0,0-1.18-2.68,6.19,6.19,0,0,0-1.94-1.87,5.06,5.06,0,0,0-2.68-.7,4.6,4.6,0,0,0-2.35.58A5,5,0,0,0,234,76a7.38,7.38,0,0,0-1,2.39A12.6,12.6,0,0,0,232.71,81.35Zm23.18-7.45.08-.55,3.4,0,4.87,0a8.35,8.35,0,0,1,2.14.26,5.25,5.25,0,0,1,1.75.81,3.82,3.82,0,0,1,1.17,1.35,4,4,0,0,1,.42,1.87,3.82,3.82,0,0,1-.53,2.06,4.92,4.92,0,0,1-1.41,1.46,8.47,8.47,0,0,1-2,1,17.26,17.26,0,0,1-2.32.64h-2.71v6.67l2.59.24-.05.55-3.85,0-3.45,0-.08-.55,2.16-.24V74.11ZM260.73,82h2.08a4.23,4.23,0,0,0,1.62-.3,3.53,3.53,0,0,0,1.26-.86,4,4,0,0,0,.81-1.3,4.58,4.58,0,0,0,.29-1.67,5.4,5.4,0,0,0-.22-1.55,3.5,3.5,0,0,0-.66-1.26,3,3,0,0,0-1.14-.83,4.16,4.16,0,0,0-1.66-.3l-2.38.17Zm17-8.14.08-.55,3.4,0,4.87,0a8.35,8.35,0,0,1,2.14.26,5.25,5.25,0,0,1,1.75.81,3.82,3.82,0,0,1,1.17,1.35,4,4,0,0,1,.42,1.87,3.82,3.82,0,0,1-.53,2.06,4.92,4.92,0,0,1-1.41,1.46,8.47,8.47,0,0,1-2,1,17.26,17.26,0,0,1-2.32.64h-2.71v6.67l2.59.24-.05.55-3.85,0-3.45,0-.08-.55,2.16-.24V74.11ZM282.61,82h2.08a4.23,4.23,0,0,0,1.62-.3,3.53,3.53,0,0,0,1.26-.86,4,4,0,0,0,.81-1.3,4.58,4.58,0,0,0,.29-1.67,5.4,5.4,0,0,0-.22-1.55,3.5,3.5,0,0,0-.66-1.26,3,3,0,0,0-1.14-.83A4.16,4.16,0,0,0,285,74l-2.38.17Zm20.54,8.17-3.42,0-.08-.58,2.16-.22V74.11l-2.16-.22.08-.55,3.42,0,3.42,0,.05.55-2.13.22V89.45l2.13.22-.05.58Zm16.28-14.07-.53-1.33V89.45l2.13.24-.08.55-2.49,0-2.66,0-.08-.55,2.16-.24V74.21l-2.1-.31.08-.55,2.33,0,2.36,0,8.67,12.26.53,1.06V74.11l-2.13-.22.05-.55,2.49,0,2.66,0,.08.55-2.16.22V90.32h-1.42ZM350,90.64a10,10,0,0,1-3.37-.57,8.25,8.25,0,0,1-2.8-1.65,7.81,7.81,0,0,1-1.91-2.69,9,9,0,0,1-.71-3.67,9.42,9.42,0,0,1,.66-3.64,7.69,7.69,0,0,1,1.88-2.72,9.31,9.31,0,0,1,3-1.82,15.11,15.11,0,0,1,3.87-.93,11.69,11.69,0,0,1,1.88.14,12.29,12.29,0,0,1,1.66.39,11.94,11.94,0,0,1,1.38.52,10.88,10.88,0,0,1,1,.52v3.61h-.76l-1.19-2.77a6.32,6.32,0,0,0-1.61-1.1,6.38,6.38,0,0,0-5.12,0,5.44,5.44,0,0,0-1.93,1.59,7.53,7.53,0,0,0-1.23,2.49,11.49,11.49,0,0,0-.43,3.26,11.12,11.12,0,0,0,.42,3.06,8.33,8.33,0,0,0,1.23,2.6,6.23,6.23,0,0,0,2,1.81,5.34,5.34,0,0,0,2.7.67,4.62,4.62,0,0,0,2.05-.43,4.69,4.69,0,0,0,1.34-.92V83.29L351.8,83l.05-.55,3.32,0,3,0,.05.55-1.55.26v5.64q-.56.24-1.32.51t-1.64.51q-.87.24-1.81.43A15.18,15.18,0,0,1,350,90.64ZM297.57,39c14.17,0,15.33-8.72,15.34-11.39,0-8.24-7.15-10.37-14.89-11.44-4.68-.66-9.25-1.63-9.25-5.53,0-3.55,3.47-5.85,8.85-5.85,4,.06,7.57,1.65,9.35,4.18h3.68V5.31L310.43,5c-2.69-3.38-6.93-5-13-5-4.82,0-9.18,1.5-11.68,4a8.89,8.89,0,0,0-2.6,6.57c0,8.1,7.41,9.79,14.35,10.75,4.81.64,9.73,1.89,9.73,6.33,0,1.5-.7,6.38-9.65,6.38-3,0-8.56-.8-11.76-6.14H282.2v3.72C285.36,36.69,290.24,39,297.57,39ZM362,19.26h0c-.1-9.45-6-19-18.93-19-9.48,0-19,6-19,19.25a20.16,20.16,0,0,0,4.61,13.31c3.38,3.89,8.37,5.94,14.43,5.94a18.77,18.77,0,0,0,11-3.13l.12-.08,4.66,4.55h3.93v-4l-4.55-4.5.09-.12A20.57,20.57,0,0,0,362,19.26Zm-9.48,10.54a13.75,13.75,0,0,1-19.51-.6,14.85,14.85,0,0,1-3.39-9.56,14.71,14.71,0,0,1,3.94-10.54,13,13,0,0,1,9.51-3.71c4.29,0,7.79,1.49,10.13,4.31a15.26,15.26,0,0,1,3.21,9.41A14.72,14.72,0,0,1,352.54,29.79Zm38.22,9.09a15.71,15.71,0,0,0,11.66-4c2.94-2.83,4.49-7,4.49-12V1.13h-5.59V22.84c0,3.55-1.08,6.46-3.13,8.4a9.73,9.73,0,0,1-7.44,2.48c-6-.23-9.69-4.4-9.69-10.88V1.13h-5.59V22.84C375.46,32.35,381.46,38.64,390.75,38.88ZM540,22.24V17H519.32V6.55h21.52V1.07H513.68V38.19H541V32.65H519.32V22.24Zm-92.88,8.08,3.59,7.87h4.11V34L440,1.07h-6.3L419,34v4.19h4.1l3.53-7.87ZM436.88,6.78l8.19,18.43H428.68Zm45.71,18.51,11.35,12.89h3.61V34.57l-8.86-9.87.33,0c6.27-.91,10-5.21,10-11.49,0-5.82-4.08-12.08-13-12.08l-8.72,0-8.55,0V38.19h5.64v-13h8.18ZM474.35,6.18H486c3.51,0,7.3,2.22,7.3,7.08,0,3.32-1.93,6.87-7.35,6.87H474.35ZM38.24,38.24V1.13H31.55L19.15,18.81,6.69,1.13H0V38.24H5.64V9.12L18.49,27.21h1.1l13-18.09V38.24ZM80.3,30.32l3.59,7.87H88V34L73.22,1.07h-6.3L52.15,34v4.19h4.1l3.53-7.87ZM70.07,6.78l8.19,18.43H61.88Zm45.71,18.51,11.35,12.89h3.61V34.57l-8.86-9.87.33,0c6.27-.91,10-5.21,10-11.49,0-5.82-4.08-12.08-13-12.08l-8.72,0-8.55,0V38.19h5.64v-13h8.18ZM107.55,6.18h11.63c3.51,0,7.3,2.22,7.3,7.08,0,3.32-1.93,6.87-7.35,6.87H107.55Zm39.34-5.11V38.19h5.59V1.07Zm53.25,37.11V1.07H194.5v27L173,1.07h-4.34V38.19h5.7V11.42l21.51,26.77Zm42.06-7.87,3.59,7.87h4.11V34L235.12,1.07h-6.3L214.05,34v4.19h4.1l3.53-7.87ZM232,6.78l8.19,18.43H223.78Z"/></g></g></svg>