<svg xmlns="http://www.w3.org/2000/svg" viewBox="0 0 85 49.03"><defs><style>.cls-1{fill:#fff;}</style></defs><title>Logo_Footer</title><g id="Layer_2" data-name="Layer 2"><g id="_1920_px" data-name="1920 px"><path class="cls-1" d="M14.54,49a3.13,3.13,0,0,1-1-.14,3.36,3.36,0,0,1-.78-.38l-.09-1.24H13l.35.81a1.86,1.86,0,0,0,.57.43,1.63,1.63,0,0,0,.75.17,1.22,1.22,0,0,0,.86-.29,1,1,0,0,0,.31-.76,1,1,0,0,0-.23-.67,2.07,2.07,0,0,0-.7-.5l-1-.52a3.94,3.94,0,0,1-.42-.23,1.66,1.66,0,0,1-.34-.28,1.18,1.18,0,0,1-.22-.36,1.22,1.22,0,0,1-.08-.46,1.26,1.26,0,0,1,.53-1A3.34,3.34,0,0,1,14.81,43a3.22,3.22,0,0,1,1.6.4v1.22h-.26l-.35-.89a1.7,1.7,0,0,0-.45-.31,1.45,1.45,0,0,0-.62-.12,1.23,1.23,0,0,0-.82.25.84.84,0,0,0-.3.68.78.78,0,0,0,.23.58,2.33,2.33,0,0,0,.62.42l1,.49a3,3,0,0,1,.85.6,1.24,1.24,0,0,1,.32.89,1.47,1.47,0,0,1-.11.55,1.43,1.43,0,0,1-.35.5,2.47,2.47,0,0,1-.66.43A4.83,4.83,0,0,1,14.54,49Zm5.15-.32.73-.08V43.41l-.73-.07,0-.19,1.16,0,1.13,0,0,.19-.7.07v2.37h2.73V43.41l-.72-.07,0-.19,1.16,0,1.13,0,0,.19-.71.07v5.22l.71.08,0,.19-1.13,0-1.16,0,0-.19.72-.08V46H21.33v2.58l.7.08,0,.19-1.13,0-1.16,0ZM31.7,43a3.08,3.08,0,0,1,1.18.22,2.71,2.71,0,0,1,.91.61,2.74,2.74,0,0,1,.6.92,3.05,3.05,0,0,1,.21,1.14A2.91,2.91,0,0,1,33.85,48a4,4,0,0,1-2.33,1,3,3,0,0,1-1.18-.22,2.79,2.79,0,0,1-.91-.61,2.68,2.68,0,0,1-.6-.92,3.08,3.08,0,0,1-.21-1.15A2.9,2.9,0,0,1,29.37,44,4,4,0,0,1,31.7,43Zm-2.05,2.86a4.19,4.19,0,0,0,.13,1.06,2.9,2.9,0,0,0,.4.91,2.1,2.1,0,0,0,.66.63,1.74,1.74,0,0,0,.91.24,1.57,1.57,0,0,0,.8-.2,1.66,1.66,0,0,0,.57-.54,2.58,2.58,0,0,0,.34-.81,4.3,4.3,0,0,0,.11-1,4.17,4.17,0,0,0-.13-1.05,3,3,0,0,0-.4-.91,2.1,2.1,0,0,0-.66-.64,1.72,1.72,0,0,0-.91-.24,1.57,1.57,0,0,0-.8.2,1.7,1.7,0,0,0-.57.54,2.51,2.51,0,0,0-.34.81A4.28,4.28,0,0,0,29.65,45.87Zm7.88-2.54,0-.19,1.16,0,1.66,0a2.84,2.84,0,0,1,.73.09,1.79,1.79,0,0,1,.6.27,1.3,1.3,0,0,1,.4.46,1.36,1.36,0,0,1,.14.63,1.3,1.3,0,0,1-.18.7,1.67,1.67,0,0,1-.48.5,2.88,2.88,0,0,1-.68.34,5.87,5.87,0,0,1-.79.22h-.92v2.27l.88.08,0,.19-1.31,0-1.17,0,0-.19.73-.08V43.41Zm1.65,2.77h.71a1.44,1.44,0,0,0,.55-.1,1.2,1.2,0,0,0,.43-.29,1.37,1.37,0,0,0,.28-.44,1.56,1.56,0,0,0,.1-.57,1.84,1.84,0,0,0-.07-.53,1.19,1.19,0,0,0-.22-.43,1,1,0,0,0-.39-.28,1.41,1.41,0,0,0-.57-.1l-.81.06ZM45,43.33l0-.19,1.16,0,1.66,0a2.84,2.84,0,0,1,.73.09,1.79,1.79,0,0,1,.6.27,1.3,1.3,0,0,1,.4.46,1.36,1.36,0,0,1,.14.63,1.3,1.3,0,0,1-.18.7,1.67,1.67,0,0,1-.48.5,2.88,2.88,0,0,1-.68.34,5.87,5.87,0,0,1-.79.22h-.92v2.27l.88.08,0,.19-1.31,0L45,48.9l0-.19.73-.08V43.41Zm1.65,2.77h.71a1.44,1.44,0,0,0,.55-.1,1.2,1.2,0,0,0,.43-.29,1.37,1.37,0,0,0,.28-.44,1.56,1.56,0,0,0,.1-.57,1.84,1.84,0,0,0-.07-.53,1.19,1.19,0,0,0-.22-.43,1,1,0,0,0-.39-.28,1.41,1.41,0,0,0-.57-.1l-.81.06Zm7,2.78-1.16,0,0-.2.73-.07V43.41l-.73-.07,0-.19,1.16,0,1.16,0,0,.19-.72.07v5.22l.72.07,0,.2Zm5.54-4.78L59,43.65v5l.72.08,0,.19-.85,0-.91,0,0-.19.73-.08V43.44l-.72-.11,0-.19.79,0,.8,0,2.95,4.17.18.36V43.41l-.72-.07,0-.19.85,0,.91,0,0,.19-.73.07v5.51h-.48ZM69.54,49a3.41,3.41,0,0,1-1.15-.19,2.81,2.81,0,0,1-1-.56,2.66,2.66,0,0,1-.65-.91,3.05,3.05,0,0,1-.24-1.25,3.2,3.2,0,0,1,.22-1.24,2.61,2.61,0,0,1,.64-.93,3.17,3.17,0,0,1,1-.62A5.14,5.14,0,0,1,69.73,43a4,4,0,0,1,.64,0,4.18,4.18,0,0,1,.57.13,4.06,4.06,0,0,1,.47.18l.35.18v1.23h-.26l-.41-.94a2.15,2.15,0,0,0-.55-.37,2.17,2.17,0,0,0-1.74,0,1.85,1.85,0,0,0-.66.54,2.56,2.56,0,0,0-.42.85A3.91,3.91,0,0,0,67.57,46a3.78,3.78,0,0,0,.14,1,2.83,2.83,0,0,0,.42.88,2.12,2.12,0,0,0,.68.61,1.82,1.82,0,0,0,.92.23,1.57,1.57,0,0,0,.7-.15,1.59,1.59,0,0,0,.46-.31V46.53l-.73-.09,0-.19,1.13,0,1,0,0,.19-.53.09v1.92l-.45.17-.56.17-.62.15A5.16,5.16,0,0,1,69.54,49ZM5,31.26c4.65,0,5-2.86,5-3.74,0-2.71-2.35-3.4-4.89-3.76-1.54-.22-3-.54-3-1.82S3.3,20,5.07,20A3.82,3.82,0,0,1,8.14,21.4H9.34V20.18l-.07-.09A5.07,5.07,0,0,0,5,18.43a5.49,5.49,0,0,0-3.84,1.32,2.92,2.92,0,0,0-.85,2.16c0,2.66,2.43,3.22,4.71,3.53,1.58.21,3.2.62,3.2,2.08,0,.49-.23,2.1-3.17,2.1a4.35,4.35,0,0,1-3.86-2H0v1.22C1,30.49,2.64,31.26,5,31.26Zm21.17-6.5h0c0-3.1-2-6.24-6.22-6.24a6,6,0,0,0-6.25,6.32,6.62,6.62,0,0,0,1.51,4.37,6.05,6.05,0,0,0,4.74,2,6.16,6.16,0,0,0,3.62-1l0,0,1.53,1.49h1.29V30.3L25,28.83l0,0A6.75,6.75,0,0,0,26.22,24.76ZM23.1,28.22A4.2,4.2,0,0,1,20,29.46,4.2,4.2,0,0,1,16.69,28a5.14,5.14,0,0,1,.18-6.6A4.27,4.27,0,0,1,20,20.2a4.16,4.16,0,0,1,3.33,1.41,5,5,0,0,1,1.05,3.09A4.83,4.83,0,0,1,23.1,28.22Zm12.55,3a5.16,5.16,0,0,0,3.83-1.32A5.32,5.32,0,0,0,41,25.94V18.8H39.12v7.13a3.68,3.68,0,0,1-1,2.76,3.19,3.19,0,0,1-2.44.82c-2-.08-3.18-1.44-3.18-3.57V18.8H30.63v7.13A4.91,4.91,0,0,0,35.65,31.2Zm49-5.47V24H77.88V20.59h7.07v-1.8H76V31h9V29.16H77.88V25.74Zm-30.5,2.65L55.34,31h1.35V29.6L51.84,18.79H49.77L44.92,29.6V31h1.35l1.16-2.58ZM50.8,20.66l2.69,6.05H48.11Zm15,6.08L69.54,31h1.19V29.79l-2.91-3.24.11,0a3.59,3.59,0,0,0,3.29-3.78,4,4,0,0,0-4.28-4H61.26V31h1.85V26.72H65.8Zm-2.7-6.28h3.82a2.27,2.27,0,0,1,2.4,2.33A2.17,2.17,0,0,1,66.91,25h-3.8ZM13,12.66V0H10.73l-4.22,6L2.28,0H0V12.66H1.92V2.76L6.29,8.91h.38l4.42-6.15v9.9ZM27.31,10l1.22,2.68h1.4V11.22L24.91,0H22.76l-5,11.2v1.43h1.4L20.34,10ZM23.83,2l2.79,6.27H21Zm15.55,6.3,3.86,4.39h1.23V11.41l-3-3.36.11,0A3.72,3.72,0,0,0,45,4.13,4.09,4.09,0,0,0,40.54,0H34.66V12.64h1.92V8.24h2.78Zm-2.8-6.5h4A2.35,2.35,0,0,1,43,4.16a2.24,2.24,0,0,1-2.5,2.34H36.58ZM50,0V12.64h1.9V0ZM68.08,12.64V0H66.16V9.2L58.84,0H57.36V12.64H59.3V3.54l7.32,9.1ZM82.38,10l1.22,2.68H85V11.22L80,0H77.83l-5,11.2v1.43h1.4L75.41,10ZM78.9,2l2.79,6.27H76.12Z"/></g></g></svg>