<svg xmlns="http://www.w3.org/2000/svg" viewBox="0 0 216.5 16.05"><defs><style>.cls-1{fill:#fff;}</style></defs><title>Logo_MenuAzul</title><g id="Layer_2" data-name="Layer 2"><g id="_1920_px" data-name="1920 px"><path class="cls-1" d="M112.93,12.65V11.17h1.47a5.3,5.3,0,0,0,4.7,2.46c3.58,0,3.86-2,3.86-2.56,0-1.78-2-2.28-3.9-2.53-2.78-.38-5.74-1.06-5.74-4.3a3.56,3.56,0,0,1,1-2.63A6.69,6.69,0,0,1,119,0c2.42,0,4.11.66,5.19,2l.09.11V3.61h-1.47a4.65,4.65,0,0,0-3.74-1.67c-2.15,0-3.54.92-3.54,2.34s1.83,1.95,3.7,2.21c3.09.43,6,1.28,6,4.58,0,1.07-.47,4.56-6.14,4.56C116.15,15.62,114.2,14.68,112.93,12.65Zm30.48,0,0,0,1.82,1.8v1.59h-1.57l-1.86-1.82,0,0a7.51,7.51,0,0,1-4.41,1.25,7.38,7.38,0,0,1-5.78-2.38,8.07,8.07,0,0,1-1.84-5.33c0-5.32,3.83-7.7,7.62-7.7,5.18,0,7.53,3.82,7.58,7.6h0A8.23,8.23,0,0,1,143.41,12.61Zm-.77-5a6.11,6.11,0,0,0-1.28-3.77,5.06,5.06,0,0,0-4.05-1.72,5.2,5.2,0,0,0-3.81,1.48,5.89,5.89,0,0,0-1.58,4.22,5.94,5.94,0,0,0,1.36,3.83,5.5,5.5,0,0,0,7.81.24A5.89,5.89,0,0,0,142.64,7.64Zm13.74,7.92A6.29,6.29,0,0,0,161,14a6.49,6.49,0,0,0,1.8-4.81V.45H160.6V9.14a4.49,4.49,0,0,1-1.25,3.36,3.89,3.89,0,0,1-3,1c-2.39-.09-3.88-1.76-3.88-4.35V.45h-2.24V9.14C150.25,12.94,152.66,15.46,156.37,15.56ZM216.09,8.9V6.81h-8.27V2.62h8.61V.43H205.57V15.28H216.5V13.07h-8.68V8.9Zm-45.38,3.23-1.41,3.15h-1.64V13.6L173.57.43h2.52L182,13.61v1.68h-1.64l-1.43-3.15Zm.84-2h6.56l-3.28-7.38Zm21.55,0h-3.27v5.18h-2.26V.41h6.91c3.59,0,5.22,2.51,5.22,4.83a4.37,4.37,0,0,1-4,4.6l-.13,0,3.54,4v1.45h-1.44l-4.54-5.16Zm-3.27-2h4.63a2.64,2.64,0,0,0,2.94-2.75,2.76,2.76,0,0,0-2.92-2.83h-4.65ZM15.3,15.3V.45H12.63l-5,7.08L2.68.45H0V15.3H2.26V3.65L7.4,10.89h.44L13,3.65V15.3Zm8.62-3.17-1.41,3.15H20.87V13.6L26.78.43H29.3l5.91,13.18v1.68H33.57l-1.43-3.15Zm.84-2h6.56L28,2.71Zm21.55,0H43v5.18H40.78V.41h6.91c3.59,0,5.22,2.51,5.22,4.83a4.37,4.37,0,0,1-4,4.6l-.13,0,3.54,4v1.45H50.87l-4.54-5.16ZM43,8.05h4.63a2.64,2.64,0,0,0,2.94-2.75,2.76,2.76,0,0,0-2.92-2.83H43ZM58.78.43V15.28H61V.43ZM80.09,15.28V.43H77.84v10.8L69.23.43H67.49V15.28h2.28V4.57l8.61,10.71Zm8.62-3.15L87.3,15.28H85.66V13.6L91.57.43h2.52L100,13.61v1.68H98.36l-1.43-3.15Zm.84-2h6.56L92.83,2.71Z"/></g></g></svg>