<?xml version="1.0" encoding="UTF-8"?><svg width="325" height="288" viewBox="0 0 325 288" xmlns="http://www.w3.org/2000/svg" xmlns:xlink="http://www.w3.org/1999/xlink"><svg width="82" height="82" viewBox="0 0 82 82" id="arc-red" x="243" xmlns="http://www.w3.org/2000/svg"><title>Stroke 73</title><path d="M.746 2.743c43.584 0 78.917 35.333 78.917 78.917" stroke="#E8807A" stroke-width="4" fill="none" fill-rule="evenodd"/></svg><svg width="46" height="46" viewBox="0 0 46 46" id="circle-green" y="242" xmlns="http://www.w3.org/2000/svg"><title>Stroke 75</title><path d="M43.763 23.12c0 11.297-9.158 20.456-20.456 20.456-11.296 0-20.455-9.16-20.455-20.456 0-11.297 9.159-20.456 20.455-20.456 11.298 0 20.456 9.159 20.456 20.456z" stroke="#24DCA4" stroke-width="4" fill="none" fill-rule="evenodd"/></svg><svg width="46" height="46" viewBox="0 0 46 46" id="circle-red" x="46" y="242" xmlns="http://www.w3.org/2000/svg"><title>Stroke-75</title><path d="M43.763 23.12c0 11.297-9.158 20.456-20.456 20.456-11.296 0-20.455-9.16-20.455-20.456 0-11.297 9.159-20.456 20.455-20.456 11.298 0 20.456 9.159 20.456 20.456z" stroke-width="4" stroke="#E8807A" fill="none" fill-rule="evenodd"/></svg><svg width="160" height="159" viewBox="0 0 160 159" id="logo" xmlns="http://www.w3.org/2000/svg"><title>Group 153</title><defs><path id="da" d="M0 6604h1920V0H0z"/></defs><g transform="translate(-880 -5005)" fill="none" fill-rule="evenodd"><path d="M937.08 5151.895a4.442 4.442 0 0 0-.748-1.175 3.02 3.02 0 0 0-1.238-.845c-.54-.203-1.012-.233-1.418-.084-.407.145-.7.457-.881.934a1.37 1.37 0 0 0 .02 1.05c.148.35.419.742.813 1.178l1.549 1.81c.43.493.74.966.935 1.42.194.452.182.967-.036 1.543-.244.682-.76 1.142-1.545 1.383-.785.238-1.806.257-3.061.054-1.091-.413-1.975-.991-2.653-1.735l.889-2.35.489.185.046 1.865c.157.305.354.59.589.859.235.266.559.48.973.636.55.21 1.03.248 1.439.116.408-.132.686-.393.833-.781a1.136 1.136 0 0 0-.06-.98 5.57 5.57 0 0 0-.731-1.019l-1.55-1.81c-.538-.62-.884-1.17-1.04-1.651-.154-.482-.132-.985.068-1.511a2.82 2.82 0 0 1 .589-.96c.25-.264.573-.463.968-.6.396-.136.874-.217 1.435-.242.56-.024 1.22.023 1.979.137.664.252 1.214.55 1.65.894.436.343.827.74 1.174 1.185l-.735 2.452-.66-.25-.082-1.708zM923.905 5155.246l-.273.375-1.899-1.17-1.869-1.106.206-.418 1.123.512 2.067-3.42-4.146-2.505-2.067 3.42 1.027.787-.274.377-1.873-1.157-1.877-1.11.205-.416 1.156.534 4.647-7.689-1.01-.776.293-.409 1.846 1.162 1.905 1.104-.226.451-1.174-.545-2.256 3.733 4.146 2.505 2.256-3.733-.976-.754.293-.409 1.837 1.156 1.931 1.12-.226.451-1.173-.545-4.647 7.69zM911.882 5141.967a7.158 7.158 0 0 0 1.08-1.532 5.07 5.07 0 0 0 .543-1.645 3.666 3.666 0 0 0-.124-1.602c-.16-.52-.467-.988-.92-1.406-.395-.362-.817-.595-1.267-.7a2.991 2.991 0 0 0-1.373.008 4.366 4.366 0 0 0-1.382.613c-.457.299-.89.67-1.297 1.115a6.967 6.967 0 0 0-1.074 1.524 5.24 5.24 0 0 0-.543 1.645 3.613 3.613 0 0 0 .125 1.616c.165.524.474.995.928 1.412.394.363.819.594 1.273.693.455.1.912.092 1.372-.022.46-.115.919-.321 1.375-.62.457-.3.885-.665 1.284-1.1m-6.093 1.253c-.601-.553-1.065-1.152-1.391-1.798a5.126 5.126 0 0 1-.56-1.961 4.823 4.823 0 0 1 .267-1.953 5.107 5.107 0 0 1 1.085-1.773c1.079-1.175 2.265-1.772 3.559-1.793 1.293-.022 2.798.519 4.513 1.623.602.553 1.066 1.153 1.392 1.798.326.645.512 1.298.559 1.96a4.686 4.686 0 0 1-.274 1.947 5.213 5.213 0 0 1-1.092 1.767c-1.08 1.174-2.265 1.772-3.56 1.792-1.292.022-2.791-.514-4.498-1.61M901.172 5130.226l-.728-.962c-.428-.566-.95-.893-1.566-.982-.615-.09-1.218.09-1.81.536-.546.414-.876.89-.991 1.43-.114.54.063 1.122.532 1.742l.893 1.012 3.67-2.776zm-1.802 5.446l-.393.247-1.33-1.791-1.944-2.537a5.675 5.675 0 0 1-.697-1.186 3.346 3.346 0 0 1-.282-1.173 2.408 2.408 0 0 1 .198-1.07c.148-.338.398-.641.75-.908.385-.291.782-.45 1.192-.473.41-.025.827.043 1.249.202.423.158.844.382 1.263.67.42.287.84.598 1.262.935l.983 1.298 3.06-2.316-.845-1.351.425-.271 1.508 2.059 1.367 1.74-.377.334-.888-.94-7.165 5.42.664 1.11zM894.34 5119.764l-.558-1.07c-.328-.63-.788-1.04-1.38-1.23-.593-.19-1.217-.114-1.873.228-.609.317-1.015.732-1.218 1.246-.202.514-.124 1.115.235 1.805l.711 1.147 4.082-2.126zm-2.686 5.07l-.429.178-1.012-1.988-1.495-2.825a5.611 5.611 0 0 1-.488-1.287 3.325 3.325 0 0 1-.083-1.203c.048-.373.172-.714.374-1.022.202-.31.498-.566.891-.77.428-.222.846-.312 1.254-.268.408.045.808.179 1.198.407.39.228.768.519 1.133.87.366.355.73.733 1.09 1.134l.751 1.444 3.405-1.773-.609-1.474.464-.196 1.144 2.283 1.057 1.94-.427.27-.719-1.076-7.969 4.15.47 1.206zM894.413 5107.605l.782 2.09-.46.205-.57-1.185-8.468 2.997.303 1.278-.45.118-.725-2.11-.763-2.097.423-.193.56 1.167 8.47-2.998-.295-1.259.487-.13zM891.632 5100.571l-.1-1.31.506-.033.242 1.53.339 1.613-.487.131-.372-1.24-8.815 1.63.068 1.253-.462.045-.247-1.447-.323-1.637 5.543-6.398.912-.598-6.898 1.274.095 1.291-.46.064-.263-1.546-.32-1.617.448-.123.375 1.26 9.508-1.757.182.988-6.988 7.648-.982.548zM889.777 5079.18c.22.498.418 1.123.594 1.875s.29 1.563.341 2.433a6.915 6.915 0 0 1-.366 2.14 5.36 5.36 0 0 1-1.004 1.78 4.655 4.655 0 0 1-1.607 1.198c-.635.29-1.354.429-2.158.416-.858-.014-1.612-.166-2.264-.458a4.648 4.648 0 0 1-1.659-1.231c-.454-.528-.815-1.17-1.084-1.924-.27-.752-.45-1.598-.542-2.536.013-.828.116-1.565.307-2.212.192-.645.391-1.16.598-1.544l2.613.042-.009.52-1.862.793c-.272.25-.508.577-.71.98-.2.406-.306.915-.316 1.53a3.71 3.71 0 0 0 .297 1.568c.207.472.507.874.897 1.208a4.27 4.27 0 0 0 1.428.785c.561.19 1.197.29 1.91.3a6.865 6.865 0 0 0 1.896-.22 4.751 4.751 0 0 0 1.553-.708 3.56 3.56 0 0 0 1.056-1.178c.263-.472.4-1.016.41-1.632.007-.483-.047-.896-.162-1.238-.115-.344-.244-.605-.389-.782l-3.095-.05-.183 1.344-.52-.05.075-2.24-.009-1.898.523-.052.145.987 3.296.054zM886.715 5064.695l.245-.538 1.08.158.878.375-.254 1.45-.26.514-1.094-.183-.864-.35zM892.783 5041.282l.813-1.364.86-1.524.42.198-.523 1.183 7.774 4.504.756-1.025.415.286-1.083 1.79-1.093 1.967-.455-.217.503-1.149-6.435-3.728-1.08-.74 6.172 8.15-.524.904-8.852-1.04-1.369-.282 7.635 4.423.756-1.024.405.303-.8 1.302-.742 1.36-.455-.218.493-1.13-7.757-4.494-.773 1.014-.38-.266.813-1.364.95-1.679 8.09.83.873.297zM902.61 5032.31l-.803-.463 2.31 4.65 2.416-2.637-3.923-1.55zm1.8 4.701l1.3 2.746 1.027-.884.33.356-1.158 1.202-.988 1.14-.398-.31.656-.927-4.224-9.104.51-1.358 9.921 3.72.863-.764.344.37-1.578 1.661-1.49 1.688-.37-.311.764-1.072-2.835-1.072-2.675 2.92zM914.06 5025.241l.741-.552c.667-.495 1.064-1.044 1.192-1.648.128-.604-.017-1.186-.432-1.744-.415-.56-.899-.864-1.453-.912-.553-.048-1.077.112-1.572.48l-1.053.906 2.576 3.47zm.26 5.813l.95-.879-5.357-7.213-1.116.654-.244-.396 1.787-1.3 2.538-1.91a5.7 5.7 0 0 1 1.163-.676 3.415 3.415 0 0 1 1.163-.288c.376-.02.734.04 1.072.18.34.141.636.383.891.727.248.334.38.686.397 1.058.017.371-.046.751-.19 1.142a4.669 4.669 0 0 1-.655 1.175c-.293.392-.63.781-1.013 1.165l1.812-.595 4.372 1.336.725-.338.283.415-1.218.855-.976.775-5.266-1.799-.22-.06-.824.61 2.457 3.31 1.052-.608.267.428-1.767 1.262-1.75 1.35-.333-.38zM927.452 5022.86l-1.951 1.082-.271-.425 1.087-.737-4.214-7.935-1.22.49-.181-.429 1.98-1.028 1.96-1.064.253.39-1.07.726 4.214 7.935 1.202-.479.2.463zM933.996 5019.07l1.281-.29.106.494-1.476.465-1.546.573-.2-.462 1.17-.55-2.914-8.479-1.23.253-.112-.45 1.394-.458 1.571-.56 7.148 4.535.726.814-2.28-6.635-1.262.285-.13-.443 1.488-.49 1.552-.555.188.424-1.189.557 3.141 9.144-.95.326-8.596-5.78-.689-.89zM949.176 5007.607l-.32-.869-1.203 5.051 3.545-.48-2.022-3.702zm-1.627 4.763l-.759 2.942 1.356-.02.025.482-1.659.185-1.488.241-.107-.492 1.096-.29 2.583-9.7 1.262-.718 5.241 9.21 1.151-.036.028.504-2.276.267-2.225.342-.085-.476 1.273-.334-1.493-2.638-3.923.531zM967.724 5013.49c.26.36.589.687.988.98.398.293.863.478 1.393.553.57.08 1.038.005 1.403-.228.364-.233.582-.6.653-1.106a1.363 1.363 0 0 0-.251-1.019c-.221-.309-.571-.632-1.05-.97l-1.91-1.428c-.527-.386-.935-.778-1.224-1.178-.29-.399-.39-.904-.303-1.514.088-.719.488-1.28 1.202-1.688.714-.406 1.706-.648 2.975-.726 1.154.163 2.144.533 2.97 1.11l-.352 2.487-.517-.073-.456-1.809a4.284 4.284 0 0 0-.762-.707c-.29-.21-.652-.346-1.09-.408-.584-.083-1.06-.014-1.43.203a1.26 1.26 0 0 0-.64.946c-.051.358.04.672.273.941.232.27.545.548.938.833l1.909 1.427c.662.486 1.12.947 1.378 1.383.257.435.345.931.267 1.49a2.838 2.838 0 0 1-.364 1.063 2.384 2.384 0 0 1-.813.8c-.356.22-.805.403-1.347.55-.542.147-1.195.247-1.961.301-.703-.1-1.305-.269-1.805-.509-.501-.24-.97-.54-1.406-.899l.178-2.553.697.1.457 1.647zM982.68 5018.064c.508.17.991.213 1.452.128.46-.086.88-.273 1.26-.561.38-.29.72-.664 1.015-1.123a6.91 6.91 0 0 0 .732-1.544 6.965 6.965 0 0 0 .363-1.83 5.235 5.235 0 0 0-.173-1.722 3.587 3.587 0 0 0-.77-1.427c-.363-.411-.837-.716-1.42-.913-.508-.172-.99-.21-1.446-.117a2.962 2.962 0 0 0-1.244.578 4.503 4.503 0 0 0-1.005 1.124 6.78 6.78 0 0 0-.727 1.526 7.085 7.085 0 0 0-.366 1.84c-.038.615.02 1.19.173 1.722.152.533.404 1.003.754 1.41.351.409.818.712 1.402.909m3.096-9.499c.774.262 1.442.62 2.002 1.078.56.457.995.98 1.307 1.565.311.586.494 1.217.55 1.892a5.136 5.136 0 0 1-.27 2.063c-.485 1.434-1.264 2.434-2.338 2.998-1.074.564-2.515.739-4.324.524l1.74.947 1.397 1.83.755.465-.21.44-2.42-.816-1.929-2.964c-.774-.26-1.438-.622-1.989-1.084a5.349 5.349 0 0 1-1.298-1.56 4.611 4.611 0 0 1-.543-1.88 5.227 5.227 0 0 1 .281-2.06c.51-1.51 1.35-2.537 2.524-3.082 1.173-.546 2.761-.664 4.765-.356M1001.073 5016.43l.264-.381 1.49.874 1.424.79-.194.422-1.152-.496-2.991 5.235a4.743 4.743 0 0 1-.796 1.05 2.675 2.675 0 0 1-1.071.639c-.415.133-.904.178-1.466.135-.562-.043-1.216-.195-1.965-.452-.686-.392-1.223-.802-1.61-1.232-.388-.43-.652-.878-.794-1.345a2.948 2.948 0 0 1-.074-1.431c.093-.487.283-.981.568-1.481l2.992-5.236-1.048-.76.265-.381 1.892 1.104 1.965 1.099-.195.42-1.151-.495-3.012 5.27c-.42.734-.557 1.442-.415 2.125.143.683.62 1.257 1.435 1.722.722.412 1.413.506 2.073.282.66-.224 1.204-.708 1.629-1.454l3-5.252-1.063-.771zM1009.295 5024.496l.424-.824-4.535 2.528 2.75 2.288 1.361-3.992zm-4.61 2.021l-2.68 1.43.932.986-.339.344-1.257-1.097-1.185-.934.291-.41.955.61 8.893-4.655 1.382.444-3.242 10.088.803.825-.352.362-1.736-1.497-1.756-1.409.293-.383 1.108.712.934-2.883-3.044-2.533zM1016.906 5035.596l.586.715c.526.642 1.094 1.014 1.704 1.11.609.1 1.183-.072 1.722-.513.538-.442.819-.94.84-1.495.022-.555-.163-1.071-.553-1.547l-.957-1.01-3.342 2.74zm-5.795.539l.924.906 6.949-5.695-.706-1.084.382-.262 1.387 1.723 2.028 2.443c.297.363.54.74.73 1.129.19.39.305.774.344 1.149.039.375-.004.735-.13 1.079-.123.345-.352.653-.683.925-.322.263-.667.413-1.037.447-.37.035-.753-.01-1.151-.135a4.707 4.707 0 0 1-1.204-.6c-.406-.272-.81-.59-1.212-.954l.68 1.782-1.125 4.429.373.708-.401.304-.912-1.177-.821-.937 1.544-5.346.05-.224-.65-.793-3.186 2.613.656 1.02-.415.289-1.345-1.705-1.432-1.684.363-.35zM1031.973 5049.513l-2.406 1.424-.194-.353 1.438-1.967-2.006-3.667-3.482 1.926 1.116 1.978 1.809-.22.194.352-1.788.898-1.711 1.038-.195-.351 1.129-1.406-1.082-1.997-3.905 2.16 2.1 3.754 2.523-.132.204.37-2.686 1.164-3.166-5.805-1.077-1.862.438-.288.746 1.056 7.844-4.34-.5-1.193.424-.188 1.024 1.89zM1033.33 5064.482l.06.588-1.014.406-.948.117-.508-1.382-.034-.575 1.038-.39.924-.132zM1029.358 5081.975l9.736-4.323.11-1.13.464.028.04 2.272.08 2.209-.461.052-.175-1.282-7.015 3.065-.92.206 8.1 2.918.106-1.35.463.027.026 1.689.06 1.507-.461.052-.173-1.181-9.506-3.606zM1029.108 5093.176l.239-2.218.504.023-.024 1.313 8.913 1.124.304-1.278.453.098-.3 2.21-.258 2.216-.464-.017.022-1.294-8.914-1.124-.301 1.259-.493-.103zM1027.73 5100.836l.542-2.144.495.093-.203 1.279 8.67 2.36.474-1.203.435.16-.596 2.108-.577 2.197-.45-.102.196-1.26-8.688-2.365-1.005 3.768 1.957 1.76-.117.428-2.814-1.058zM1030.103 5117.633l.902.21-3.552-3.785-1.553 3.222 4.203.353zm-3.079-3.982l-2.037-2.254-.73 1.143-.417-.246.76-1.485.619-1.375.47.18-.361 1.077 6.671 7.499-.096 1.448-10.572-.7-.606.98-.436-.254 1.032-2.047.94-2.046.444.192-.423 1.247 3.023.207 1.72-3.566zM1020.47 5136.636l-1 1.234-1.068 1.385-.388-.255.687-1.096-7.053-5.566-.895.907-.369-.343 1.326-1.616 1.363-1.792.42.28-.662 1.065 5.838 4.607.963.888-4.947-8.948.648-.82 8.613 2.29 1.315.475-6.927-5.466-.894.907-.358-.36.978-1.172.928-1.241.42.28-.65 1.049 7.037 5.554.91-.894.338.318-.999 1.233-1.179 1.528-7.89-1.976-.822-.418zM1010.143 5140.3a7.111 7.111 0 0 0-1.363-1.287 5.072 5.072 0 0 0-1.55-.771 3.665 3.665 0 0 0-1.604-.105c-.537.084-1.044.32-1.522.71-.415.339-.706.724-.873 1.154-.168.43-.23.884-.188 1.36.042.475.18.96.41 1.456.231.495.537.975.918 1.443.407.498.86.925 1.356 1.279a5.21 5.21 0 0 0 1.551.772 3.592 3.592 0 0 0 1.617.106c.543-.088 1.053-.327 1.53-.717.415-.338.704-.726.868-1.162.163-.435.221-.89.173-1.361a4.507 4.507 0 0 0-.418-1.45 6.81 6.81 0 0 0-.905-1.426m.372 6.208a6.307 6.307 0 0 1-1.978 1.122 5.134 5.134 0 0 1-2.02.274 4.82 4.82 0 0 1-1.895-.542 5.101 5.101 0 0 1-1.602-1.326c-1.008-1.235-1.43-2.495-1.268-3.778.163-1.283.913-2.695 2.25-4.236.634-.517 1.293-.891 1.978-1.121a5.099 5.099 0 0 1 2.02-.275 4.712 4.712 0 0 1 1.888.548 5.219 5.219 0 0 1 1.593 1.333c1.01 1.235 1.431 2.494 1.268 3.777-.163 1.285-.908 2.692-2.234 4.224M995.733 5155.284l.183.427-1.533.8-1.425.785-.254-.389 1.032-.712-2.848-5.315a4.752 4.752 0 0 1-.467-1.232 2.683 2.683 0 0 1 .027-1.246c.108-.423.33-.86.665-1.314.335-.453.81-.928 1.425-1.425.697-.374 1.33-.61 1.9-.71.57-.1 1.09-.087 1.561.041a2.94 2.94 0 0 1 1.252.697c.363.337.681.76.953 1.268l2.848 5.314 1.201-.483.182.427-1.94 1.016-1.975 1.081-.253-.387 1.031-.713-2.867-5.35c-.399-.745-.925-1.238-1.579-1.48-.655-.243-1.395-.142-2.222.301-.732.393-1.179.928-1.339 1.608-.16.68-.038 1.395.366 2.151l2.858 5.333 1.218-.493zM983.957 5155.398l-.883.274c-.792.247-1.35.634-1.67 1.162-.32.526-.376 1.124-.17 1.79.207.664.563 1.11 1.07 1.34.507.227 1.053.25 1.642.069l1.294-.508-1.283-4.127zm1.678-5.573l-1.187.516 2.668 8.58 1.27-.249.099.455-2.118.636-3.026.962a5.739 5.739 0 0 1-1.322.253 3.438 3.438 0 0 1-1.192-.114 2.404 2.404 0 0 1-.952-.524c-.274-.245-.473-.573-.6-.981a1.897 1.897 0 0 1-.025-1.13c.106-.356.293-.694.558-1.016a4.692 4.692 0 0 1 1.005-.89c.408-.275.855-.53 1.342-.765l-1.905-.038-3.684-2.708-.797.08-.13-.486 1.433-.404 1.178-.409 4.374 3.441.188.132.978-.306-1.222-3.934-1.193.224-.111-.492 2.084-.607 2.1-.695.188.47zM968.872 5161.412l.297.877 1.337-5.017-3.556.385 1.922 3.755zm1.754-4.719l.836-2.92-1.356-.015-.012-.485 1.663-.138 1.494-.202.095.495-1.104.26-2.841 9.627-1.28.685-4.994-9.346-1.151.003-.015-.504 2.283-.206 2.233-.282.072.477-1.281.301 1.42 2.676 3.938-.426zM949.34 5159.546l-.564-.178.026-1.092.267-.917 1.47.078.54.195-.048 1.108-.243.9z" fill="#292A6E"/><mask id="db" fill="#fff"><use xlink:href="#da"/></mask><path d="M939.922 5104.578h40.156v-40.156h-40.156v40.156zm-2.616 2.615h45.387v-45.388h-45.387v45.388z" fill="#292A6E" mask="url(#db)"/><path d="M960 5063.114l-21.386 21.386L960 5105.885l21.386-21.385L960 5063.114zm0 3.7l17.687 17.686L960 5102.186l-17.687-17.686L960 5066.813z" fill="#292A6E" mask="url(#db)"/><path fill="#292A6E" mask="url(#db)" d="M958.686 5105.886h2.616v-42.771h-2.616z"/><path fill="#292A6E" mask="url(#db)" d="M958.686 5105.886h2.616v-42.771h-2.616z"/></g></svg><svg width="76" height="76" viewBox="0 0 76 76" id="romb-green" x="160" y="83" xmlns="http://www.w3.org/2000/svg"><title>Group 2</title><g transform="translate(3 2)" stroke-width="4" stroke="#24DCA4" fill="none" fill-rule="evenodd"><path d="M34.72.858v70.206M69.439 36.017L34.72 70.736 0 36.016l34.72-34.72z"/></g></svg><svg width="76" height="76" viewBox="0 0 76 76" id="romb-red" x="166" y="159" xmlns="http://www.w3.org/2000/svg"><title>Group</title><g transform="translate(3 2)" stroke="#E8807A" stroke-width="4" fill="none" fill-rule="evenodd"><path d="M34.72.858v70.206M69.439 36.017L34.72 70.736 0 36.016l34.72-34.72z"/></g></svg><svg width="83" height="83" viewBox="0 0 83 83" id="stripes-green" x="83" y="159" xmlns="http://www.w3.org/2000/svg"><title>Stroke 69</title><path d="M2.252 80.785l78.9-78.919M2.24 54.476L54.852 1.863M2.24 28.174L28.55 1.865m.007 78.93L81.17 28.18M54.863 80.796l26.309-26.309" stroke="#24DCA4" stroke-width="4" fill="none" fill-rule="evenodd"/></svg><svg width="80" height="62" viewBox="0 0 80 62" id="waves-green" x="243" y="82" xmlns="http://www.w3.org/2000/svg"><title>Stroke 71</title><path d="M79.455 59.188c-9.85 0-9.85-5.583-19.701-5.583s-9.851 5.584-19.702 5.584-9.851-5.584-19.702-5.584S10.499 59.19.647 59.19m78.808-16.956c-9.85 0-9.85-5.582-19.701-5.582s-9.851 5.581-19.702 5.581-9.851-5.581-19.702-5.581-9.851 5.581-19.703 5.581m78.808-16.954c-9.85 0-9.85-5.583-19.701-5.583s-9.851 5.582-19.702 5.582-9.851-5.582-19.702-5.582-9.851 5.582-19.703 5.582M79.455 8.323c-9.85 0-9.85-5.584-19.701-5.584s-9.851 5.585-19.702 5.585S30.2 2.738 20.35 2.738 10.499 8.323.647 8.323" stroke="#24DCA4" stroke-width="4" fill="none" fill-rule="evenodd"/></svg><svg width="80" height="62" viewBox="0 0 80 62" id="waves-red" x="243" y="144" xmlns="http://www.w3.org/2000/svg"><title>Stroke 231</title><path d="M79.455 59.189c-9.85 0-9.85-5.584-19.701-5.584s-9.851 5.584-19.702 5.584-9.851-5.584-19.702-5.584S10.499 59.19.647 59.19m78.808-16.955c-9.85 0-9.85-5.584-19.701-5.584s-9.851 5.584-19.702 5.584S30.2 36.65 20.35 36.65 10.499 42.234.647 42.234m78.808-16.955c-9.85 0-9.85-5.584-19.701-5.584s-9.851 5.584-19.702 5.584-9.851-5.584-19.702-5.584S10.499 25.28.647 25.28M79.455 8.324c-9.85 0-9.85-5.584-19.701-5.584s-9.851 5.584-19.702 5.584S30.2 2.74 20.35 2.74 10.499 8.324.647 8.324" stroke="#E8807A" stroke-width="4" fill="none" fill-rule="evenodd"/></svg><svg width="83" height="83" viewBox="0 0 83 83" id="x-green" y="159" xmlns="http://www.w3.org/2000/svg"><title>Stroke 223</title><path d="M2.083 80.662L81.001 1.763m-.01 78.908L2.092 1.755" stroke="#24DCA4" stroke-width="4" fill="none" fill-rule="evenodd"/></svg><svg width="83" height="83" viewBox="0 0 83 83" id="x-red" x="160" xmlns="http://www.w3.org/2000/svg"><title>Stroke 227</title><path d="M2.083 80.662L81.001 1.764m-.01 78.908L2.092 1.755" stroke="#E8807A" stroke-width="4" fill="none" fill-rule="evenodd"/></svg></svg>