<?xml version="1.0" encoding="UTF-8"?>
<svg width="191px" height="110px" viewBox="0 0 191 110" version="1.1" xmlns="http://www.w3.org/2000/svg" xmlns:xlink="http://www.w3.org/1999/xlink">
    <!-- Generator: Sketch 41 (35326) - http://www.bohemiancoding.com/sketch -->
    <title>Group</title>
    <desc>Created with Sketch.</desc>
    <defs>
        <polygon id="path-1" points="0 5735 375 5735 375 0 0 0"></polygon>
    </defs>
    <g id="Page-1" stroke="none" stroke-width="1" fill="none" fill-rule="evenodd">
        <g id="Marina-Square---Website-375px" transform="translate(-1012.000000, -302.000000)">
            <g id="Group-149" transform="translate(920.000000, 0.000000)">
                <g id="Group">
                    <path d="M124.9932,411.9624 C124.1322,411.9624 123.3932,411.8584 122.7762,411.6504 C122.1592,411.4434 121.5802,411.1624 121.0412,410.8084 L120.8292,408.0434 L121.5992,408.0434 L122.3902,409.8564 C122.7242,410.2344 123.1452,410.5514 123.6532,410.8084 C124.1612,411.0654 124.7172,411.1934 125.3212,411.1934 C126.1312,411.1934 126.7692,410.9764 127.2392,410.5434 C127.7082,410.1094 127.9422,409.5454 127.9422,408.8484 C127.9422,408.2634 127.7692,407.7654 127.4232,407.3564 C127.0752,406.9474 126.5552,406.5774 125.8602,406.2484 L123.5272,405.0944 C123.1932,404.9354 122.8822,404.7644 122.5932,404.5814 C122.3042,404.3984 122.0542,404.1904 121.8412,403.9584 C121.6292,403.7264 121.4622,403.4614 121.3402,403.1614 C121.2182,402.8624 121.1562,402.5184 121.1562,402.1274 C121.1562,401.1744 121.5522,400.3964 122.3422,399.7924 C123.1332,399.1874 124.2222,398.7634 125.6092,398.5194 C126.9332,398.5194 128.1292,398.8184 129.1962,399.4164 L129.1962,402.1454 L128.6172,402.1454 L127.8272,400.1494 C127.5312,399.8684 127.1932,399.6394 126.8152,399.4624 C126.4352,399.2854 125.9762,399.1964 125.4362,399.1964 C124.6652,399.1964 124.0572,399.3824 123.6142,399.7554 C123.1712,400.1284 122.9492,400.6314 122.9492,401.2664 C122.9492,401.7914 123.1232,402.2254 123.4702,402.5664 C123.8172,402.9084 124.2792,403.2204 124.8582,403.5014 L127.1132,404.6004 C127.8972,404.9904 128.5312,405.4394 129.0132,405.9454 C129.4952,406.4524 129.7362,407.1154 129.7362,407.9324 C129.7362,408.3484 129.6552,408.7574 129.4952,409.1604 C129.3342,409.5634 129.0702,409.9384 128.7042,410.2864 C128.3382,410.6344 127.8492,410.9524 127.2392,411.2384 C126.6282,411.5254 125.8802,411.7664 124.9932,411.9624 Z" id="Fill-110" fill="#FFFFFF"></path>
                    <polygon id="Fill-112" fill="#FFFFFF" points="136.5049 411.248 138.1439 411.065 138.1439 399.398 136.5049 399.233 136.5629 398.812 139.1649 398.849 141.6909 398.812 141.7479 399.233 140.1869 399.398 140.1869 404.691 146.2789 404.691 146.2789 399.398 144.6589 399.233 144.7179 398.812 147.3189 398.849 149.8459 398.812 149.9029 399.233 148.3219 399.398 148.3219 411.065 149.9029 411.248 149.8459 411.669 147.3189 411.632 144.7179 411.669 144.6589 411.248 146.2789 411.065 146.2789 405.296 140.1869 405.296 140.1869 411.065 141.7479 411.248 141.6909 411.669 139.1649 411.632 136.5629 411.669"></polygon>
                    <path d="M158.7656,404.9014 C158.7656,405.7204 158.8656,406.5124 159.0646,407.2764 C159.2636,408.0414 159.5626,408.7164 159.9606,409.3034 C160.3596,409.8904 160.8546,410.3614 161.4456,410.7164 C162.0366,411.0704 162.7176,411.2484 163.4896,411.2484 C164.1696,411.2484 164.7646,411.1014 165.2726,410.8084 C165.7806,410.5144 166.2016,410.1104 166.5356,409.5974 C166.8696,409.0844 167.1196,408.4784 167.2866,407.7814 C167.4536,407.0844 167.5366,406.3384 167.5366,405.5434 C167.5366,404.7364 167.4386,403.9504 167.2396,403.1864 C167.0386,402.4224 166.7416,401.7434 166.3416,401.1504 C165.9446,400.5574 165.4526,400.0834 164.8676,399.7294 C164.2826,399.3744 163.6046,399.1964 162.8336,399.1964 C162.1526,399.1964 161.5576,399.3434 161.0506,399.6374 C160.5416,399.9304 160.1186,400.3344 159.7786,400.8474 C159.4376,401.3614 159.1836,401.9664 159.0166,402.6634 C158.8496,403.3604 158.7656,404.1074 158.7656,404.9014 M163.3546,398.5194 C164.3186,398.5194 165.1956,398.6814 165.9856,399.0044 C166.7766,399.3284 167.4566,399.7794 168.0296,400.3594 C168.6006,400.9404 169.0446,401.6234 169.3596,402.4114 C169.6736,403.1984 169.8316,404.0504 169.8316,404.9664 C169.8316,406.9684 169.2726,408.5474 168.1546,409.7004 C167.0366,410.8544 165.3016,411.6084 162.9496,411.9624 C161.9856,411.9624 161.1086,411.7974 160.3176,411.4674 C159.5276,411.1384 158.8456,410.6864 158.2736,410.1124 C157.7026,409.5394 157.2586,408.8554 156.9436,408.0614 C156.6286,407.2674 156.4716,406.4134 156.4716,405.4974 C156.4716,403.5074 157.0306,401.9354 158.1486,400.7814 C159.2666,399.6274 161.0016,398.8734 163.3546,398.5194" id="Fill-114" fill="#FFFFFF"></path>
                    <path d="M180.0723,405.4238 L181.6533,405.4238 C182.1033,405.4238 182.5143,405.3478 182.8873,405.1948 C183.2603,405.0408 183.5783,404.8238 183.8423,404.5418 C184.1053,404.2608 184.3103,403.9298 184.4593,403.5498 C184.6063,403.1708 184.6803,402.7478 184.6803,402.2828 C184.6803,401.8658 184.6263,401.4738 184.5163,401.1068 C184.4073,400.7398 184.2403,400.4218 184.0153,400.1518 C183.7903,399.8828 183.5013,399.6708 183.1473,399.5178 C182.7943,399.3648 182.3733,399.2878 181.8843,399.2878 L180.0723,399.4168 L180.0723,405.4238 Z M176.3903,399.2338 L176.4483,398.8118 L179.0313,398.8488 L182.7333,398.8118 C183.3113,398.8118 183.8543,398.8798 184.3623,399.0138 C184.8703,399.1488 185.3133,399.3528 185.6923,399.6268 C186.0713,399.9018 186.3673,400.2438 186.5793,400.6528 C186.7913,401.0618 186.8973,401.5348 186.8973,402.0718 C186.8973,402.6828 186.7623,403.2048 186.4933,403.6378 C186.2223,404.0718 185.8663,404.4408 185.4233,404.7458 C184.9793,405.0518 184.4713,405.3048 183.8993,405.5068 C183.3273,405.7078 182.7393,405.8698 182.1353,405.9918 L180.0723,405.9918 L180.0723,411.0648 L182.0393,411.2478 L182.0013,411.6698 L179.0703,411.6318 L176.4483,411.6698 L176.3903,411.2478 L178.0293,411.0648 L178.0293,399.3988 L176.3903,399.2338 Z" id="Fill-116" fill="#FFFFFF"></path>
                    <path d="M196.7109,405.4238 L198.2919,405.4238 C198.7409,405.4238 199.1519,405.3478 199.5249,405.1948 C199.8989,405.0408 200.2169,404.8238 200.4799,404.5418 C200.7429,404.2608 200.9489,403.9298 201.0969,403.5498 C201.2439,403.1708 201.3179,402.7478 201.3179,402.2828 C201.3179,401.8658 201.2639,401.4738 201.1539,401.1068 C201.0449,400.7398 200.8779,400.4218 200.6529,400.1518 C200.4289,399.8828 200.1389,399.6708 199.7859,399.5178 C199.4319,399.3648 199.0119,399.2878 198.5229,399.2878 L196.7109,399.4168 L196.7109,405.4238 Z M193.0279,399.2338 L193.0869,398.8118 L195.6699,398.8488 L199.3709,398.8118 C199.9489,398.8118 200.4919,398.8798 200.9999,399.0138 C201.5079,399.1488 201.9509,399.3528 202.3309,399.6268 C202.7099,399.9018 203.0049,400.2438 203.2179,400.6528 C203.4299,401.0618 203.5349,401.5348 203.5349,402.0718 C203.5349,402.6828 203.3999,403.2048 203.1309,403.6378 C202.8609,404.0718 202.5039,404.4408 202.0609,404.7458 C201.6169,405.0518 201.1089,405.3048 200.5379,405.5068 C199.9659,405.7078 199.3779,405.8698 198.7739,405.9918 L196.7109,405.9918 L196.7109,411.0648 L198.6779,411.2478 L198.6389,411.6698 L195.7079,411.6318 L193.0869,411.6698 L193.0279,411.2478 L194.6669,411.0648 L194.6669,399.3988 L193.0279,399.2338 Z" id="Fill-118" fill="#FFFFFF"></path>
                    <polygon id="Fill-120" fill="#FFFFFF" points="212.3262 411.6323 209.7232 411.6693 209.6662 411.2293 211.3052 411.0653 211.3052 399.3983 209.6662 399.2333 209.7232 398.8123 212.3262 398.8483 214.9302 398.8123 214.9682 399.2333 213.3482 399.3983 213.3482 411.0653 214.9682 411.2293 214.9302 411.6693"></polygon>
                    <polygon id="Fill-122" fill="#FFFFFF" points="224.7061 400.937 224.3011 399.929 224.3011 411.065 225.9211 411.248 225.8621 411.669 223.9741 411.632 221.9491 411.669 221.8921 411.248 223.5291 411.065 223.5291 399.472 221.9301 399.233 221.9871 398.812 223.7611 398.849 225.5541 398.812 232.1471 408.135 232.5521 408.94 232.5521 399.398 230.9331 399.233 230.9721 398.812 232.8611 398.849 234.8851 398.812 234.9431 399.233 233.3041 399.398 233.3041 411.724 232.2251 411.724"></polygon>
                    <path d="M247.9443,411.9624 C247.0443,411.9624 246.1893,411.8184 245.3803,411.5324 C244.5703,411.2454 243.8603,410.8274 243.2503,410.2774 C242.6383,409.7284 242.1543,409.0474 241.7943,408.2354 C241.4333,407.4234 241.2543,406.4924 241.2543,405.4414 C241.2543,404.4044 241.4213,403.4834 241.7563,402.6764 C242.0903,401.8704 242.5653,401.1814 243.1813,400.6074 C243.7983,400.0334 244.5483,399.5724 245.4273,399.2244 C246.3083,398.8764 247.2893,398.6414 248.3683,398.5194 C248.8693,398.5194 249.3443,398.5554 249.7953,398.6294 C250.2453,398.7024 250.6663,398.8004 251.0573,398.9214 C251.4493,399.0444 251.7993,399.1754 252.1083,399.3164 C252.4173,399.4564 252.6733,399.5874 252.8803,399.7094 L252.8803,402.4564 L252.3013,402.4564 L251.3943,400.3504 C251.0983,400.0574 250.6913,399.7794 250.1713,399.5174 C249.6503,399.2544 248.9983,399.1234 248.2143,399.1234 C247.4943,399.1234 246.8483,399.2644 246.2763,399.5444 C245.7043,399.8254 245.2153,400.2294 244.8113,400.7534 C244.4063,401.2784 244.0943,401.9104 243.8763,402.6494 C243.6573,403.3884 243.5483,404.2154 243.5483,405.1304 C243.5483,405.9364 243.6543,406.7124 243.8663,407.4574 C244.0783,408.2014 244.3893,408.8614 244.8013,409.4344 C245.2133,410.0084 245.7173,410.4664 246.3153,410.8084 C246.9133,411.1504 247.5963,411.3214 248.3683,411.3214 C248.9593,411.3214 249.4793,411.2114 249.9293,410.9914 C250.3803,410.7724 250.7203,410.5404 250.9523,410.2954 L250.9523,406.3764 L249.3123,406.1744 L249.3513,405.7534 L251.8773,405.7904 L254.1323,405.7534 L254.1713,406.1744 L252.9953,406.3764 L252.9953,410.6624 C252.7133,410.7844 252.3783,410.9124 251.9923,411.0464 C251.6063,411.1814 251.1923,411.3094 250.7493,411.4314 C250.3053,411.5534 249.8463,411.6634 249.3713,411.7604 C248.8953,411.8584 248.4193,411.9254 247.9443,411.9624" id="Fill-124" fill="#FFFFFF"></path>
                    <path d="M103.7842,372.2388 C114.1892,372.2388 115.0372,365.8408 115.0502,363.8798 C115.0502,357.8328 109.7972,356.2688 104.1202,355.4818 C100.6832,354.9958 97.3292,354.2828 97.3292,351.4238 C97.3292,348.8148 99.8782,347.1288 103.8222,347.1288 C106.7582,347.1698 109.3802,348.3418 110.6892,350.1948 L113.3882,350.1948 L113.3882,347.4748 L113.2232,347.2678 C111.2502,344.7828 108.1372,343.5758 103.7062,343.5758 C100.1702,343.5758 96.9632,344.6778 95.1302,346.5238 C93.8522,347.8098 93.2112,349.4318 93.2242,351.3448 C93.2242,357.2938 98.6632,358.5358 103.7612,359.2338 C107.2942,359.7008 110.9062,360.6188 110.9062,363.8808 C110.9062,364.9798 110.3952,368.5678 103.8222,368.5678 C101.6012,368.5678 97.5382,367.9798 95.1912,364.0608 L92.5002,364.0608 L92.5002,366.7898 C94.8212,370.5128 98.4042,372.2388 103.7842,372.2388" id="Fill-126" fill="#FFFFFF"></path>
                    <path d="M144.1387,365.4478 C142.3847,367.2578 139.9857,368.2148 137.2017,368.2148 C134.1637,368.2148 131.6097,367.1038 129.8147,365.0058 C128.2317,363.1548 127.3477,360.6628 127.3267,357.9878 C127.2827,354.9778 128.3357,352.1558 130.2167,350.2458 C131.9727,348.4648 134.3887,347.5218 137.2017,347.5218 C140.3487,347.5218 142.9197,348.6148 144.6397,350.6828 C146.0957,352.4348 146.9337,354.8878 146.9967,357.5908 C147.0897,360.6148 146.0477,363.4808 144.1387,365.4478 M151.1017,357.7128 L151.1017,357.7118 C151.0247,350.7738 146.6987,343.7728 137.2017,343.7728 C130.2437,343.7728 123.2247,348.1428 123.2247,357.9068 C123.2247,361.7048 124.4247,365.1758 126.6067,367.6808 C129.0897,370.5338 132.7537,372.0418 137.2017,372.0418 C140.4127,372.0418 143.1377,371.2708 145.2997,369.7468 L145.3877,369.6858 L148.8067,373.0248 L151.6897,373.0248 L151.6897,370.1028 L148.3477,366.8018 L148.4127,366.7128 C150.1867,364.2608 151.1417,361.0648 151.1017,357.7128" id="Fill-128" fill="#FFFFFF"></path>
                    <path d="M172.1963,372.1206 C175.6163,372.2456 178.6573,371.1936 180.7543,369.1696 C182.9093,367.0886 184.0493,364.0376 184.0493,360.3436 L184.0493,344.4026 L179.9463,344.4026 L179.9463,360.3436 C179.9463,362.9526 179.1523,365.0826 177.6493,366.5086 C176.2673,367.8196 174.3793,368.4516 172.1863,368.3306 C167.7973,368.1626 165.0693,365.1026 165.0693,360.3436 L165.0693,344.4026 L160.9673,344.4026 L160.9673,360.3436 C160.9673,367.3226 165.3753,371.9446 172.1963,372.1206" id="Fill-130" fill="#FFFFFF"></path>
                    <polygon id="Fill-132" fill="#FFFFFF" points="281.7529 359.8999 281.7529 356.0719 266.5849 356.0719 266.5849 348.3859 282.3829 348.3859 282.3829 344.3629 262.4439 344.3629 262.4439 371.6099 282.4999 371.6099 282.4999 367.5459 266.5849 367.5459 266.5849 359.8999"></polygon>
                    <path d="M206.0576,348.5522 L212.0726,362.0832 L200.0426,362.0832 L206.0576,348.5522 Z M213.5676,365.8332 L216.2006,371.6102 L219.2176,371.6102 L219.2156,368.5362 L208.3706,344.3632 L203.7456,344.3632 L192.9016,368.5332 L192.9016,371.6102 L195.9136,371.6102 L198.5076,365.8332 L213.5676,365.8332 Z" id="Fill-134" fill="#FFFFFF"></path>
                    <path d="M233.5713,348.1118 L242.1093,348.1118 C244.6893,348.1118 247.4663,349.7388 247.4663,353.3098 C247.4663,355.7468 246.0493,358.3508 242.0713,358.3508 L233.5713,358.3508 L233.5713,348.1118 Z M239.6123,362.1438 L247.9453,371.6098 L250.5933,371.6098 L250.5943,368.9538 L244.0923,361.7048 L244.3313,361.6698 C248.9363,361.0028 251.6853,357.8478 251.6853,353.2318 C251.6853,348.9598 248.6893,344.3628 242.1093,344.3628 C239.9683,344.3628 237.8363,344.3528 235.7043,344.3438 C233.6163,344.3338 231.5283,344.3228 229.4303,344.3228 L229.4303,371.6098 L233.5713,371.6098 L233.5713,362.1008 L239.5743,362.1008 L239.6123,362.1438 Z" id="Fill-136" fill="#FFFFFF"></path>
                    <polygon id="Fill-138" fill="#FFFFFF" points="121.5732 330.6685 121.5732 302.4505 116.4872 302.4505 107.0572 315.8975 97.5882 302.4505 92.5002 302.4505 92.5002 330.6685 96.7902 330.6685 96.7902 308.5295 106.5552 322.2855 107.3942 322.2855 117.2832 308.5345 117.2832 330.6685"></polygon>
                    <path d="M145.7764,306.7485 L152.0054,320.7625 L139.5474,320.7625 L145.7764,306.7485 Z M153.5544,324.6455 L156.2804,330.6275 L159.4054,330.6275 L159.4034,327.4445 L148.1724,302.4095 L143.3824,302.4095 L132.1524,327.4415 L132.1524,330.6275 L135.2724,330.6275 L137.9584,324.6455 L153.5544,324.6455 Z" id="Fill-140" fill="#FFFFFF"></path>
                    <path d="M174.2705,306.2925 L183.1135,306.2925 C185.7865,306.2925 188.6615,307.9775 188.6615,311.6755 C188.6615,314.1995 187.1935,316.8965 183.0735,316.8965 L174.2705,316.8965 L174.2705,306.2925 Z M180.5275,320.8255 L189.1575,330.6275 L191.9005,330.6275 L191.9015,327.8765 L185.1665,320.3705 L185.4145,320.3335 C190.1835,319.6435 193.0315,316.3755 193.0315,311.5945 C193.0315,307.1705 189.9275,302.4095 183.1135,302.4095 C180.8955,302.4095 178.6875,302.3995 176.4795,302.3905 C174.3175,302.3795 172.1545,302.3695 169.9825,302.3695 L169.9825,330.6275 L174.2705,330.6275 L174.2705,320.7795 L180.4885,320.7795 L180.5275,320.8255 Z" id="Fill-142" fill="#FFFFFF"></path>
                    <mask id="mask-2" fill="white">
                        <use xlink:href="#path-1"></use>
                    </mask>
                    <g id="Clip-145"></g>
                    <polygon id="Fill-144" fill="#FFFFFF" mask="url(#mask-2)" points="204.186 330.627 208.434 330.627 208.434 302.409 204.186 302.409"></polygon>
                    <polygon id="Fill-146" fill="#FFFFFF" mask="url(#mask-2)" points="244.6699 330.6274 244.6699 302.4094 240.3789 302.4094 240.3789 322.9244 224.0239 302.4094 220.7239 302.4094 220.7239 330.6274 225.0539 330.6274 225.0539 310.2774 241.4069 330.6274"></polygon>
                    <path d="M268.8711,306.7485 L275.1001,320.7625 L262.6421,320.7625 L268.8711,306.7485 Z M276.6481,324.6455 L279.3751,330.6275 L282.5001,330.6275 L282.4981,327.4445 L271.2671,302.4095 L266.4761,302.4095 L255.2461,327.4415 L255.2461,330.6275 L258.3661,330.6275 L261.0531,324.6455 L276.6481,324.6455 Z" id="Fill-147" fill="#FFFFFF" mask="url(#mask-2)"></path>
                </g>
            </g>
        </g>
    </g>
</svg>