<?xml version="1.0" encoding="UTF-8"?>
<svg width="160px" height="159px" viewBox="0 0 160 159" version="1.1" xmlns="http://www.w3.org/2000/svg" xmlns:xlink="http://www.w3.org/1999/xlink">
    <!-- Generator: Sketch 41 (35326) - http://www.bohemiancoding.com/sketch -->
    <title>Group 153</title>
    <desc>Created with Sketch.</desc>
    <defs>
        <polygon id="path-1" points="0 6604 1920 6604 1920 0 0 0"></polygon>
    </defs>
    <g id="Page-1" stroke="none" stroke-width="1" fill="none" fill-rule="evenodd">
        <g id="Marina-Square---Website-1920px" transform="translate(-1255.000000, -5008.000000)">
            <g id="Group-153" transform="translate(375.000000, 3.000000)">
                <path d="M937.0796,5151.8955 C936.9056,5151.4855 936.6556,5151.0935 936.3316,5150.7205 C936.0076,5150.3465 935.5946,5150.0655 935.0936,5149.8755 C934.5546,5149.6715 934.0816,5149.6425 933.6756,5149.7905 C933.2686,5149.9365 932.9756,5150.2485 932.7946,5150.7245 C932.6626,5151.0755 932.6686,5151.4255 932.8156,5151.7745 C932.9626,5152.1245 933.2336,5152.5165 933.6276,5152.9525 L935.1766,5154.7635 C935.6066,5155.2555 935.9176,5155.7285 936.1116,5156.1825 C936.3056,5156.6345 936.2936,5157.1505 936.0756,5157.7265 C935.8316,5158.4085 935.3166,5158.8685 934.5306,5159.1085 C933.7456,5159.3475 932.7246,5159.3665 931.4696,5159.1635 C930.3786,5158.7495 929.4946,5158.1715 928.8166,5157.4275 L929.7056,5155.0785 L930.1946,5155.2635 L930.2406,5157.1285 C930.3976,5157.4325 930.5946,5157.7175 930.8296,5157.9865 C931.0646,5158.2535 931.3886,5158.4665 931.8026,5158.6235 C932.3536,5158.8325 932.8336,5158.8705 933.2416,5158.7385 C933.6496,5158.6065 933.9276,5158.3455 934.0746,5157.9575 C934.2026,5157.6195 934.1836,5157.2925 934.0156,5156.9785 C933.8486,5156.6645 933.6036,5156.3255 933.2836,5155.9595 L931.7346,5154.1485 C931.1956,5153.5285 930.8496,5152.9785 930.6936,5152.4975 C930.5396,5152.0155 930.5616,5151.5125 930.7616,5150.9865 C930.9036,5150.6105 931.1006,5150.2905 931.3506,5150.0275 C931.6006,5149.7635 931.9236,5149.5635 932.3186,5149.4265 C932.7146,5149.2905 933.1926,5149.2095 933.7536,5149.1855 C934.3146,5149.1615 934.9746,5149.2075 935.7326,5149.3225 C936.3966,5149.5745 936.9466,5149.8725 937.3826,5150.2155 C937.8186,5150.5595 938.2096,5150.9555 938.5566,5151.4015 L937.8216,5153.8525 L937.1626,5153.6035 L937.0796,5151.8955 Z" id="Fill-84" fill="#292A6E"></path>
                <polygon id="Fill-86" fill="#292A6E" points="923.9053 5155.2461 923.6323 5155.6211 921.7333 5154.4501 919.8643 5153.3451 920.0703 5152.9271 921.1933 5153.4391 923.2603 5150.0181 919.1143 5147.5141 917.0473 5150.9341 918.0743 5151.7211 917.8003 5152.0981 915.9273 5150.9411 914.0503 5149.8311 914.2553 5149.4151 915.4113 5149.9491 920.0583 5142.2601 919.0473 5141.4841 919.3413 5141.0751 921.1873 5142.2371 923.0923 5143.3411 922.8663 5143.7921 921.6923 5143.2471 919.4363 5146.9801 923.5823 5149.4851 925.8383 5145.7521 924.8623 5144.9981 925.1553 5144.5891 926.9923 5145.7451 928.9233 5146.8651 928.6973 5147.3161 927.5243 5146.7711 922.8773 5154.4611"></polygon>
                <path d="M911.8818,5141.9668 C912.3168,5141.4928 912.6768,5140.9828 912.9628,5140.4348 C913.2478,5139.8868 913.4288,5139.3378 913.5048,5138.7898 C913.5818,5138.2408 913.5398,5137.7068 913.3808,5137.1878 C913.2208,5136.6678 912.9138,5136.1998 912.4608,5135.7818 C912.0658,5135.4198 911.6438,5135.1868 911.1938,5135.0818 C910.7438,5134.9778 910.2868,5134.9808 909.8208,5135.0898 C909.3568,5135.1988 908.8958,5135.4048 908.4388,5135.7028 C907.9818,5136.0018 907.5498,5136.3728 907.1418,5136.8178 C906.7058,5137.2908 906.3488,5137.7988 906.0678,5138.3418 C905.7868,5138.8848 905.6068,5139.4338 905.5248,5139.9868 C905.4448,5140.5398 905.4858,5141.0788 905.6498,5141.6028 C905.8148,5142.1268 906.1238,5142.5978 906.5778,5143.0148 C906.9718,5143.3778 907.3968,5143.6088 907.8508,5143.7078 C908.3058,5143.8078 908.7628,5143.7998 909.2228,5143.6858 C909.6828,5143.5708 910.1418,5143.3648 910.5978,5143.0668 C911.0548,5142.7668 911.4828,5142.4008 911.8818,5141.9668 M905.7888,5143.2188 C905.1878,5142.6658 904.7238,5142.0668 904.3978,5141.4208 C904.0718,5140.7758 903.8858,5140.1218 903.8388,5139.4598 C903.7918,5138.7978 903.8808,5138.1478 904.1048,5137.5068 C904.3298,5136.8668 904.6908,5136.2758 905.1898,5135.7338 C906.2688,5134.5588 907.4548,5133.9618 908.7488,5133.9408 C910.0418,5133.9188 911.5468,5134.4598 913.2618,5135.5638 C913.8638,5136.1168 914.3278,5136.7168 914.6538,5137.3618 C914.9798,5138.0068 915.1658,5138.6598 915.2128,5139.3218 C915.2598,5139.9848 915.1688,5140.6328 914.9388,5141.2688 C914.7098,5141.9048 914.3458,5142.4928 913.8468,5143.0358 C912.7678,5144.2098 911.5818,5144.8078 910.2878,5144.8278 C908.9948,5144.8498 907.4958,5144.3138 905.7888,5143.2188" id="Fill-88" fill="#292A6E"></path>
                <path d="M901.1719,5130.2256 L900.4439,5129.2636 C900.0159,5128.6976 899.4939,5128.3706 898.8779,5128.2816 C898.2629,5128.1926 897.6599,5128.3716 897.0689,5128.8176 C896.5219,5129.2316 896.1919,5129.7086 896.0769,5130.2486 C895.9629,5130.7886 896.1399,5131.3696 896.6089,5131.9896 L897.5019,5133.0016 L901.1719,5130.2256 Z M899.3699,5135.6716 L898.9769,5135.9186 L897.6469,5134.1276 L895.7029,5131.5906 C895.4119,5131.2056 895.1799,5130.8106 895.0059,5130.4046 C894.8329,5129.9966 894.7389,5129.6066 894.7239,5129.2316 C894.7089,5128.8566 894.7749,5128.4996 894.9219,5128.1616 C895.0699,5127.8236 895.3199,5127.5206 895.6719,5127.2536 C896.0569,5126.9626 896.4539,5126.8046 896.8639,5126.7806 C897.2739,5126.7556 897.6909,5126.8236 898.1129,5126.9826 C898.5359,5127.1406 898.9569,5127.3646 899.3759,5127.6526 C899.7959,5127.9396 900.2169,5128.2506 900.6379,5128.5876 L901.6209,5129.8856 L904.6819,5127.5696 L903.8359,5126.2186 L904.2609,5125.9476 L905.7689,5128.0066 L907.1359,5129.7466 L906.7589,5130.0806 L905.8709,5129.1406 L898.7059,5134.5606 L899.3699,5135.6716 Z" id="Fill-90" fill="#292A6E"></path>
                <path d="M894.3391,5119.7637 L893.7821,5118.6947 C893.4541,5118.0647 892.9941,5117.6547 892.4021,5117.4637 C891.8091,5117.2747 891.1851,5117.3497 890.5291,5117.6917 C889.9201,5118.0087 889.5141,5118.4237 889.3111,5118.9377 C889.1091,5119.4517 889.1871,5120.0527 889.5461,5120.7427 L890.2571,5121.8897 L894.3391,5119.7637 Z M891.6541,5124.8337 L891.2251,5125.0117 L890.2131,5123.0237 L888.7181,5120.1987 C888.4951,5119.7707 888.3331,5119.3417 888.2301,5118.9117 C888.1271,5118.4827 888.0991,5118.0807 888.1471,5117.7087 C888.1951,5117.3357 888.3191,5116.9947 888.5211,5116.6867 C888.7231,5116.3777 889.0191,5116.1207 889.4121,5115.9167 C889.8401,5115.6947 890.2581,5115.6047 890.6661,5115.6487 C891.0741,5115.6937 891.4741,5115.8277 891.8641,5116.0557 C892.2541,5116.2837 892.6321,5116.5747 892.9971,5116.9267 C893.3631,5117.2807 893.7261,5117.6587 894.0861,5118.0597 L894.8381,5119.5037 L898.2431,5117.7307 L897.6341,5116.2567 L898.0981,5116.0607 L899.2421,5118.3437 L900.2991,5120.2847 L899.8721,5120.5537 L899.1531,5119.4777 L891.1841,5123.6277 L891.6541,5124.8337 Z" id="Fill-92" fill="#292A6E"></path>
                <polygon id="Fill-94" fill="#292A6E" points="894.4126 5107.6045 895.1946 5109.6945 894.7346 5109.8995 894.1656 5108.7145 885.6966 5111.7115 885.9996 5112.9905 885.5496 5113.1075 884.8246 5110.9975 884.0616 5108.9005 884.4846 5108.7085 885.0456 5109.8745 893.5156 5106.8765 893.2196 5105.6185 893.7066 5105.4885"></polygon>
                <polygon id="Fill-96" fill="#292A6E" points="891.6316 5100.5713 891.5326 5099.2603 892.0376 5099.2283 892.2796 5100.7583 892.6186 5102.3713 892.1316 5102.5023 891.7596 5101.2623 882.9446 5102.8913 883.0126 5104.1453 882.5506 5104.1903 882.3036 5102.7433 881.9806 5101.1063 887.5236 5094.7083 888.4356 5094.1103 881.5376 5095.3843 881.6326 5096.6753 881.1736 5096.7393 880.9096 5095.1933 880.5896 5093.5763 881.0376 5093.4533 881.4126 5094.7123 890.9206 5092.9563 891.1026 5093.9443 884.1146 5101.5923 883.1326 5102.1403"></polygon>
                <path d="M889.7771,5079.1797 C889.9971,5079.6777 890.1951,5080.3027 890.3711,5081.0547 C890.5471,5081.8067 890.6611,5082.6177 890.7121,5083.4877 C890.7001,5084.2367 890.5781,5084.9507 890.3461,5085.6287 C890.1141,5086.3067 889.7791,5086.9007 889.3421,5087.4087 C888.9051,5087.9157 888.3691,5088.3147 887.7351,5088.6057 C887.1001,5088.8957 886.3811,5089.0347 885.5771,5089.0217 C884.7191,5089.0077 883.9651,5088.8557 883.3131,5088.5637 C882.6611,5088.2727 882.1081,5087.8627 881.6541,5087.3327 C881.2001,5086.8047 880.8391,5086.1627 880.5701,5085.4087 C880.3001,5084.6567 880.1201,5083.8107 880.0281,5082.8727 C880.0411,5082.0447 880.1441,5081.3077 880.3351,5080.6607 C880.5271,5080.0157 880.7261,5079.5007 880.9331,5079.1167 L883.5461,5079.1587 L883.5371,5079.6797 L881.6751,5080.4717 C881.4031,5080.7217 881.1671,5081.0487 880.9651,5081.4527 C880.7651,5081.8577 880.6591,5082.3667 880.6491,5082.9817 C880.6401,5083.5557 880.7391,5084.0787 880.9461,5084.5497 C881.1531,5085.0217 881.4531,5085.4237 881.8431,5085.7577 C882.2341,5086.0917 882.7101,5086.3537 883.2711,5086.5427 C883.8321,5086.7327 884.4681,5086.8327 885.1801,5086.8437 C885.8511,5086.8557 886.4841,5086.7817 887.0771,5086.6237 C887.6711,5086.4657 888.1881,5086.2297 888.6301,5085.9147 C889.0711,5085.6007 889.4231,5085.2077 889.6861,5084.7367 C889.9491,5084.2647 890.0851,5083.7207 890.0951,5083.1047 C890.1031,5082.6217 890.0491,5082.2087 889.9341,5081.8667 C889.8191,5081.5227 889.6901,5081.2617 889.5451,5081.0847 L886.4501,5081.0347 L886.2671,5082.3787 L885.7461,5082.3297 L885.8221,5080.0897 L885.8131,5078.1907 L886.3361,5078.1387 L886.4811,5079.1257 L889.7771,5079.1797 Z" id="Fill-98" fill="#292A6E"></path>
                <polygon id="Fill-100" fill="#292A6E" points="886.7146 5064.6953 886.9596 5064.1573 888.0396 5064.3153 888.9176 5064.6903 888.6636 5066.1403 888.4046 5066.6543 887.3096 5066.4713 886.4456 5066.1213"></polygon>
                <polygon id="Fill-102" fill="#292A6E" points="892.7832 5041.2822 893.5962 5039.9182 894.4562 5038.3942 894.8762 5038.5922 894.3532 5039.7752 902.1272 5044.2792 902.8832 5043.2542 903.2982 5043.5402 902.2152 5045.3292 901.1222 5047.2972 900.6672 5047.0802 901.1702 5045.9312 894.7352 5042.2032 893.6552 5041.4622 899.8272 5049.6132 899.3032 5050.5172 890.4512 5049.4772 889.0822 5049.1952 896.7172 5053.6182 897.4732 5052.5942 897.8782 5052.8972 897.0772 5054.1992 896.3362 5055.5582 895.8812 5055.3412 896.3742 5054.2102 888.6172 5049.7172 887.8442 5050.7312 887.4642 5050.4652 888.2772 5049.1012 889.2272 5047.4222 897.3172 5048.2522 898.1902 5048.5492"></polygon>
                <path d="M902.6101,5032.3105 L901.8071,5031.8475 L904.1161,5036.4975 L906.5331,5033.8605 L902.6101,5032.3105 Z M904.4091,5037.0115 L905.7091,5039.7575 L906.7371,5038.8725 L907.0661,5039.2285 L905.9091,5040.4315 L904.9211,5041.5705 L904.5231,5041.2605 L905.1791,5040.3345 L900.9551,5031.2305 L901.4651,5029.8715 L911.3861,5033.5915 L912.2491,5032.8285 L912.5931,5033.1975 L911.0151,5034.8595 L909.5241,5036.5465 L909.1541,5036.2355 L909.9191,5035.1645 L907.0841,5034.0925 L904.4091,5037.0115 Z" id="Fill-104" fill="#292A6E"></path>
                <path d="M914.0591,5025.2412 L914.8011,5024.6892 C915.4681,5024.1942 915.8651,5023.6452 915.9931,5023.0412 C916.1211,5022.4372 915.9761,5021.8552 915.5611,5021.2972 C915.1461,5020.7372 914.6621,5020.4332 914.1081,5020.3852 C913.5551,5020.3372 913.0311,5020.4972 912.5361,5020.8642 L911.4831,5021.7712 L914.0591,5025.2412 Z M914.3201,5031.0542 L915.2691,5030.1752 L909.9131,5022.9622 L908.7971,5023.6162 L908.5531,5023.2202 L910.3401,5021.9192 L912.8781,5020.0102 C913.2551,5019.7292 913.6421,5019.5052 914.0411,5019.3342 C914.4401,5019.1632 914.8281,5019.0662 915.2041,5019.0462 C915.5801,5019.0252 915.9381,5019.0852 916.2761,5019.2252 C916.6151,5019.3672 916.9121,5019.6092 917.1671,5019.9532 C917.4151,5020.2872 917.5471,5020.6392 917.5641,5021.0112 C917.5811,5021.3822 917.5181,5021.7622 917.3741,5022.1532 C917.2301,5022.5452 917.0121,5022.9352 916.7191,5023.3282 C916.4261,5023.7202 916.0891,5024.1092 915.7061,5024.4932 L917.5181,5023.8982 L921.8901,5025.2342 L922.6151,5024.8962 L922.8981,5025.3112 L921.6801,5026.1662 L920.7041,5026.9412 L915.4381,5025.1422 L915.2171,5025.0822 L914.3941,5025.6922 L916.8511,5029.0012 L917.9031,5028.3942 L918.1701,5028.8222 L916.4031,5030.0842 L914.6521,5031.4342 L914.3201,5031.0542 Z" id="Fill-106" fill="#292A6E"></path>
                <polygon id="Fill-108" fill="#292A6E" points="927.4517 5022.8604 925.5007 5023.9424 925.2297 5023.5174 926.3167 5022.7804 922.1027 5014.8454 920.8837 5015.3344 920.7017 5014.9064 922.6817 5013.8784 924.6427 5012.8144 924.8947 5013.2034 923.8257 5013.9304 928.0387 5021.8654 929.2407 5021.3864 929.4417 5021.8494"></polygon>
                <polygon id="Fill-110" fill="#292A6E" points="933.9961 5019.0703 935.2771 5018.7793 935.3831 5019.2743 933.9071 5019.7393 932.3611 5020.3123 932.1601 5019.8503 933.3301 5019.2993 930.4171 5010.8213 929.1871 5011.0743 929.0751 5010.6243 930.4691 5010.1663 932.0401 5009.6053 939.1881 5014.1413 939.9141 5014.9553 937.6341 5008.3203 936.3721 5008.6053 936.2411 5008.1623 937.7301 5007.6713 939.2821 5007.1173 939.4701 5007.5413 938.2811 5008.0983 941.4221 5017.2423 940.4721 5017.5683 931.8761 5011.7873 931.1871 5010.8973"></polygon>
                <path d="M949.1763,5007.6074 L948.8563,5006.7384 L947.6533,5011.7894 L951.1983,5011.3094 L949.1763,5007.6074 Z M947.5493,5012.3704 L946.7903,5015.3124 L948.1463,5015.2914 L948.1713,5015.7744 L946.5123,5015.9594 L945.0243,5016.2004 L944.9173,5015.7084 L946.0133,5015.4184 L948.5963,5005.7174 L949.8583,5005.0004 L955.0993,5014.2094 L956.2503,5014.1744 L956.2783,5014.6784 L954.0023,5014.9454 L951.7773,5015.2874 L951.6923,5014.8114 L952.9653,5014.4774 L951.4723,5011.8394 L947.5493,5012.3704 Z" id="Fill-112" fill="#292A6E"></path>
                <path d="M967.7236,5013.4893 C967.9836,5013.8503 968.3126,5014.1773 968.7116,5014.4703 C969.1096,5014.7633 969.5746,5014.9483 970.1046,5015.0233 C970.6756,5015.1033 971.1426,5015.0283 971.5076,5014.7953 C971.8716,5014.5623 972.0896,5014.1943 972.1606,5013.6893 C972.2136,5013.3183 972.1296,5012.9783 971.9096,5012.6703 C971.6886,5012.3613 971.3386,5012.0383 970.8596,5011.6993 L968.9496,5010.2723 C968.4226,5009.8863 968.0146,5009.4943 967.7256,5009.0943 C967.4366,5008.6953 967.3356,5008.1903 967.4226,5007.5803 C967.5106,5006.8613 967.9106,5006.2993 968.6246,5005.8923 C969.3386,5005.4863 970.3306,5005.2443 971.5996,5005.1663 C972.7536,5005.3293 973.7436,5005.6993 974.5696,5006.2763 L974.2176,5008.7633 L973.7006,5008.6903 L973.2446,5006.8813 C973.0246,5006.6193 972.7706,5006.3843 972.4826,5006.1743 C972.1936,5005.9643 971.8306,5005.8283 971.3936,5005.7663 C970.8086,5005.6833 970.3326,5005.7523 969.9636,5005.9693 C969.5946,5006.1883 969.3806,5006.5043 969.3226,5006.9153 C969.2716,5007.2733 969.3626,5007.5873 969.5956,5007.8563 C969.8276,5008.1263 970.1406,5008.4043 970.5336,5008.6893 L972.4426,5010.1163 C973.1046,5010.6023 973.5636,5011.0633 973.8206,5011.4993 C974.0776,5011.9343 974.1656,5012.4303 974.0876,5012.9883 C974.0306,5013.3853 973.9096,5013.7413 973.7236,5014.0523 C973.5366,5014.3653 973.2656,5014.6313 972.9106,5014.8513 C972.5546,5015.0723 972.1056,5015.2553 971.5636,5015.4023 C971.0216,5015.5493 970.3686,5015.6493 969.6026,5015.7033 C968.8996,5015.6033 968.2976,5015.4343 967.7976,5015.1943 C967.2966,5014.9543 966.8276,5014.6543 966.3916,5014.2953 L966.5696,5011.7423 L967.2666,5011.8413 L967.7236,5013.4893 Z" id="Fill-114" fill="#292A6E"></path>
                <path d="M982.6802,5018.0635 C983.1882,5018.2345 983.6712,5018.2775 984.1322,5018.1925 C984.5922,5018.1065 985.0122,5017.9195 985.3922,5017.6305 C985.7722,5017.3415 986.1112,5016.9675 986.4072,5016.5085 C986.7022,5016.0495 986.9472,5015.5355 987.1392,5014.9635 C987.3452,5014.3545 987.4662,5013.7455 987.5022,5013.1345 C987.5372,5012.5245 987.4802,5011.9505 987.3292,5011.4115 C987.1792,5010.8735 986.9222,5010.3975 986.5592,5009.9855 C986.1962,5009.5735 985.7222,5009.2685 985.1382,5009.0715 C984.6312,5008.9005 984.1492,5008.8615 983.6932,5008.9555 C983.2372,5009.0485 982.8222,5009.2415 982.4492,5009.5325 C982.0752,5009.8245 981.7402,5010.1985 981.4442,5010.6575 C981.1472,5011.1165 980.9052,5011.6255 980.7172,5012.1835 C980.5112,5012.7925 980.3892,5013.4065 980.3512,5014.0225 C980.3132,5014.6385 980.3702,5015.2125 980.5242,5015.7455 C980.6762,5016.2775 980.9282,5016.7485 981.2782,5017.1555 C981.6292,5017.5635 982.0962,5017.8665 982.6802,5018.0635 M985.7762,5008.5655 C986.5502,5008.8265 987.2182,5009.1855 987.7782,5009.6425 C988.3372,5010.1005 988.7732,5010.6225 989.0852,5011.2085 C989.3962,5011.7935 989.5792,5012.4245 989.6352,5013.1005 C989.6892,5013.7765 989.5992,5014.4635 989.3642,5015.1625 C988.8802,5016.5965 988.1012,5017.5965 987.0272,5018.1605 C985.9532,5018.7245 984.5122,5018.8995 982.7032,5018.6855 L984.4422,5019.6325 L985.8402,5021.4615 L986.5952,5021.9275 L986.3842,5022.3665 L983.9652,5021.5505 L982.0362,5018.5875 C981.2622,5018.3275 980.5982,5017.9655 980.0472,5017.5035 C979.4952,5017.0425 979.0632,5016.5225 978.7492,5015.9425 C978.4362,5015.3635 978.2552,5014.7365 978.2062,5014.0625 C978.1582,5013.3885 978.2512,5012.7025 978.4872,5012.0035 C978.9962,5010.4935 979.8372,5009.4655 981.0112,5008.9205 C982.1842,5008.3755 983.7722,5008.2575 985.7762,5008.5655" id="Fill-116" fill="#292A6E"></path>
                <path d="M1001.0728,5016.4297 L1001.3368,5016.0487 L1002.8278,5016.9227 L1004.2508,5017.7137 L1004.0568,5018.1347 L1002.9048,5017.6387 L999.9138,5022.8737 C999.6808,5023.2827 999.4158,5023.6317 999.1178,5023.9237 C998.8188,5024.2167 998.4628,5024.4287 998.0468,5024.5627 C997.6318,5024.6957 997.1428,5024.7407 996.5808,5024.6977 C996.0188,5024.6547 995.3648,5024.5027 994.6158,5024.2457 C993.9298,5023.8537 993.3928,5023.4437 993.0058,5023.0137 C992.6178,5022.5837 992.3538,5022.1357 992.2118,5021.6687 C992.0698,5021.2007 992.0448,5020.7247 992.1378,5020.2377 C992.2308,5019.7507 992.4208,5019.2567 992.7058,5018.7567 L995.6978,5013.5207 L994.6498,5012.7607 L994.9148,5012.3797 L996.8068,5013.4837 L998.7718,5014.5827 L998.5768,5015.0037 L997.4258,5014.5077 L994.4138,5019.7787 C993.9948,5020.5117 993.8568,5021.2197 993.9988,5021.9027 C994.1418,5022.5857 994.6198,5023.1597 995.4338,5023.6247 C996.1558,5024.0367 996.8468,5024.1307 997.5068,5023.9067 C998.1678,5023.6827 998.7108,5023.1987 999.1358,5022.4527 L1002.1368,5017.2007 L1001.0728,5016.4297 Z" id="Fill-118" fill="#292A6E"></path>
                <path d="M1009.2954,5024.4961 L1009.7194,5023.6721 L1005.1844,5026.2001 L1007.9344,5028.4881 L1009.2954,5024.4961 Z M1004.6854,5026.5171 L1002.0044,5027.9471 L1002.9374,5028.9331 L1002.5984,5029.2771 L1001.3414,5028.1801 L1000.1564,5027.2461 L1000.4474,5026.8351 L1001.4024,5027.4461 L1010.2954,5022.7911 L1011.6774,5023.2351 L1008.4354,5033.3231 L1009.2384,5034.1481 L1008.8864,5034.5101 L1007.1504,5033.0131 L1005.3944,5031.6041 L1005.6874,5031.2211 L1006.7954,5031.9331 L1007.7294,5029.0501 L1004.6854,5026.5171 Z" id="Fill-120" fill="#292A6E"></path>
                <path d="M1016.9058,5035.5957 L1017.4918,5036.3107 C1018.0178,5036.9527 1018.5858,5037.3247 1019.1958,5037.4217 C1019.8048,5037.5207 1020.3788,5037.3487 1020.9178,5036.9077 C1021.4558,5036.4657 1021.7368,5035.9677 1021.7588,5035.4127 C1021.7798,5034.8577 1021.5948,5034.3417 1021.2048,5033.8657 L1020.2478,5032.8567 L1016.9058,5035.5957 Z M1011.1108,5036.1347 L1012.0348,5037.0407 L1018.9838,5031.3457 L1018.2778,5030.2617 L1018.6598,5029.9997 L1020.0468,5031.7227 L1022.0748,5034.1657 C1022.3718,5034.5287 1022.6148,5034.9057 1022.8048,5035.2947 C1022.9948,5035.6857 1023.1098,5036.0687 1023.1488,5036.4437 C1023.1878,5036.8187 1023.1448,5037.1787 1023.0198,5037.5227 C1022.8958,5037.8677 1022.6668,5038.1757 1022.3358,5038.4477 C1022.0138,5038.7107 1021.6688,5038.8607 1021.2988,5038.8947 C1020.9288,5038.9297 1020.5458,5038.8847 1020.1478,5038.7597 C1019.7508,5038.6337 1019.3498,5038.4347 1018.9438,5038.1607 C1018.5378,5037.8877 1018.1338,5037.5697 1017.7318,5037.2057 L1018.4118,5038.9877 L1017.2868,5043.4167 L1017.6598,5044.1247 L1017.2588,5044.4287 L1016.3468,5043.2517 L1015.5258,5042.3147 L1017.0698,5036.9687 L1017.1198,5036.7447 L1016.4698,5035.9517 L1013.2838,5038.5647 L1013.9398,5039.5857 L1013.5248,5039.8737 L1012.1798,5038.1687 L1010.7478,5036.4847 L1011.1108,5036.1347 Z" id="Fill-122" fill="#292A6E"></path>
                <polygon id="Fill-124" fill="#292A6E" points="1031.9727 5049.5127 1029.5667 5050.9367 1029.3727 5050.5837 1030.8107 5048.6167 1028.8047 5044.9497 1025.3227 5046.8757 1026.4387 5048.8537 1028.2477 5048.6337 1028.4417 5048.9857 1026.6537 5049.8837 1024.9427 5050.9217 1024.7477 5050.5707 1025.8767 5049.1647 1024.7947 5047.1677 1020.8897 5049.3277 1022.9907 5053.0817 1025.5127 5052.9497 1025.7167 5053.3197 1023.0307 5054.4837 1019.8647 5048.6787 1018.7877 5046.8167 1019.2257 5046.5287 1019.9717 5047.5847 1027.8157 5043.2447 1027.3157 5042.0517 1027.7397 5041.8637 1028.7637 5043.7537"></polygon>
                <polygon id="Fill-126" fill="#292A6E" points="1033.3306 5064.4824 1033.3896 5065.0704 1032.3756 5065.4764 1031.4276 5065.5934 1030.9196 5064.2114 1030.8856 5063.6364 1031.9236 5063.2454 1032.8476 5063.1144"></polygon>
                <polygon id="Fill-128" fill="#292A6E" points="1029.3579 5081.9746 1039.0939 5077.6516 1039.2049 5076.5226 1039.6679 5076.5496 1039.7089 5078.8216 1039.7879 5081.0306 1039.3269 5081.0826 1039.1519 5079.8006 1032.1369 5082.8656 1031.2169 5083.0716 1039.3179 5085.9896 1039.4229 5084.6396 1039.8859 5084.6666 1039.9119 5086.3556 1039.9719 5087.8626 1039.5109 5087.9146 1039.3379 5086.7336 1029.8319 5083.1276"></polygon>
                <polygon id="Fill-130" fill="#292A6E" points="1029.1079 5093.1758 1029.3469 5090.9578 1029.8509 5090.9808 1029.8269 5092.2938 1038.7399 5093.4178 1039.0439 5092.1398 1039.4969 5092.2378 1039.1979 5094.4478 1038.9389 5096.6638 1038.4749 5096.6468 1038.4969 5095.3528 1029.5829 5094.2288 1029.2819 5095.4878 1028.7889 5095.3848"></polygon>
                <polygon id="Fill-132" fill="#292A6E" points="1027.7295 5100.8359 1028.2715 5098.6919 1028.7675 5098.7849 1028.5645 5100.0639 1037.2335 5102.4249 1037.7075 5101.2209 1038.1435 5101.3809 1037.5475 5103.4889 1036.9705 5105.6859 1036.5195 5105.5839 1036.7155 5104.3249 1028.0275 5101.9589 1027.0225 5105.7269 1028.9795 5107.4879 1028.8635 5107.9149 1026.0485 5106.8569"></polygon>
                <path d="M1030.1035,5117.6328 L1031.0055,5117.8438 L1027.4535,5114.0578 L1025.9005,5117.2798 L1030.1035,5117.6328 Z M1027.0245,5113.6508 L1024.9865,5111.3968 L1024.2575,5112.5398 L1023.8405,5112.2938 L1024.6005,5110.8088 L1025.2185,5109.4338 L1025.6885,5109.6148 L1025.3275,5110.6908 L1031.9995,5118.1898 L1031.9035,5119.6378 L1021.3305,5118.9388 L1020.7245,5119.9178 L1020.2895,5119.6638 L1021.3205,5117.6168 L1022.2615,5115.5708 L1022.7045,5115.7628 L1022.2825,5117.0098 L1025.3055,5117.2168 L1027.0245,5113.6508 Z" id="Fill-134" fill="#292A6E"></path>
                <polygon id="Fill-136" fill="#292A6E" points="1020.4692 5136.6357 1019.4692 5137.8697 1018.4022 5139.2547 1018.0142 5138.9997 1018.7012 5137.9037 1011.6482 5132.3377 1010.7532 5133.2447 1010.3842 5132.9017 1011.7102 5131.2857 1013.0732 5129.4937 1013.4922 5129.7737 1012.8312 5130.8387 1018.6692 5135.4457 1019.6322 5136.3337 1014.6852 5127.3857 1015.3332 5126.5657 1023.9462 5128.8567 1025.2612 5129.3307 1018.3342 5123.8647 1017.4402 5124.7717 1017.0822 5124.4127 1018.0602 5123.2397 1018.9882 5121.9987 1019.4072 5122.2797 1018.7582 5123.3277 1025.7952 5128.8817 1026.7052 5127.9877 1027.0432 5128.3057 1026.0442 5129.5387 1024.8652 5131.0667 1016.9752 5129.0907 1016.1532 5128.6727"></polygon>
                <path d="M1010.1431,5140.3008 C1009.7361,5139.8028 1009.2821,5139.3728 1008.7801,5139.0128 C1008.2791,5138.6528 1007.7621,5138.3958 1007.2301,5138.2418 C1006.6981,5138.0878 1006.1641,5138.0528 1005.6261,5138.1368 C1005.0891,5138.2208 1004.5821,5138.4568 1004.1041,5138.8468 C1003.6891,5139.1858 1003.3981,5139.5708 1003.2311,5140.0008 C1003.0631,5140.4318 1003.0011,5140.8848 1003.0431,5141.3618 C1003.0851,5141.8358 1003.2221,5142.3218 1003.4531,5142.8168 C1003.6841,5143.3118 1003.9901,5143.7918 1004.3711,5144.2598 C1004.7781,5144.7578 1005.2301,5145.1848 1005.7271,5145.5388 C1006.2251,5145.8948 1006.7421,5146.1518 1007.2781,5146.3108 C1007.8141,5146.4698 1008.3531,5146.5048 1008.8951,5146.4168 C1009.4381,5146.3288 1009.9481,5146.0898 1010.4251,5145.6998 C1010.8401,5145.3618 1011.1291,5144.9738 1011.2931,5144.5378 C1011.4561,5144.1028 1011.5141,5143.6488 1011.4661,5143.1768 C1011.4181,5142.7058 1011.2791,5142.2228 1011.0481,5141.7278 C1010.8171,5141.2338 1010.5161,5140.7568 1010.1431,5140.3008 M1010.5151,5146.5088 C1009.8821,5147.0268 1009.2221,5147.3998 1008.5371,5147.6308 C1007.8521,5147.8618 1007.1791,5147.9518 1006.5171,5147.9048 C1005.8551,5147.8568 1005.2231,5147.6758 1004.6221,5147.3628 C1004.0201,5147.0498 1003.4861,5146.6078 1003.0201,5146.0368 C1002.0121,5144.8018 1001.5891,5143.5418 1001.7521,5142.2588 C1001.9151,5140.9758 1002.6651,5139.5638 1004.0021,5138.0228 C1004.6361,5137.5058 1005.2951,5137.1318 1005.9801,5136.9018 C1006.6651,5136.6698 1007.3381,5136.5788 1008.0001,5136.6268 C1008.6621,5136.6748 1009.2911,5136.8578 1009.8881,5137.1748 C1010.4841,5137.4918 1011.0151,5137.9368 1011.4811,5138.5078 C1012.4901,5139.7428 1012.9121,5141.0018 1012.7491,5142.2848 C1012.5861,5143.5698 1011.8411,5144.9768 1010.5151,5146.5088" id="Fill-138" fill="#292A6E"></path>
                <path d="M995.7334,5155.2842 L995.9164,5155.7112 L994.3834,5156.5102 L992.9584,5157.2962 L992.7044,5156.9072 L993.7364,5156.1952 L990.8884,5150.8802 C990.6664,5150.4672 990.5104,5150.0552 990.4214,5149.6482 C990.3324,5149.2402 990.3414,5148.8242 990.4484,5148.4022 C990.5564,5147.9792 990.7784,5147.5412 991.1134,5147.0882 C991.4484,5146.6352 991.9234,5146.1602 992.5384,5145.6632 C993.2354,5145.2892 993.8684,5145.0532 994.4384,5144.9532 C995.0074,5144.8522 995.5284,5144.8662 995.9994,5144.9942 C996.4704,5145.1212 996.8874,5145.3532 997.2514,5145.6912 C997.6144,5146.0282 997.9324,5146.4512 998.2044,5146.9592 L1001.0524,5152.2732 L1002.2534,5151.7902 L1002.4354,5152.2172 L1000.4954,5153.2332 L998.5204,5154.3142 L998.2674,5153.9272 L999.2984,5153.2142 L996.4314,5147.8642 C996.0324,5147.1192 995.5064,5146.6262 994.8524,5146.3842 C994.1974,5146.1412 993.4574,5146.2422 992.6304,5146.6852 C991.8984,5147.0782 991.4514,5147.6132 991.2914,5148.2932 C991.1304,5148.9722 991.2534,5149.6882 991.6574,5150.4442 L994.5154,5155.7772 L995.7334,5155.2842 Z" id="Fill-140" fill="#292A6E"></path>
                <path d="M983.9575,5155.3975 L983.0745,5155.6715 C982.2815,5155.9185 981.7245,5156.3055 981.4045,5156.8335 C981.0845,5157.3605 981.0275,5157.9575 981.2345,5158.6235 C981.4415,5159.2885 981.7975,5159.7345 982.3045,5159.9635 C982.8105,5160.1915 983.3575,5160.2145 983.9455,5160.0325 L985.2405,5159.5245 L983.9575,5155.3975 Z M985.6355,5149.8255 L984.4485,5150.3405 L987.1155,5158.9205 L988.3855,5158.6725 L988.4845,5159.1265 L986.3675,5159.7635 L983.3405,5160.7255 C982.8935,5160.8645 982.4525,5160.9495 982.0195,5160.9785 C981.5865,5161.0075 981.1885,5160.9695 980.8265,5160.8645 C980.4645,5160.7595 980.1465,5160.5845 979.8745,5160.3395 C979.6015,5160.0945 979.4015,5159.7675 979.2745,5159.3585 C979.1505,5158.9615 979.1435,5158.5855 979.2495,5158.2295 C979.3565,5157.8735 979.5425,5157.5355 979.8075,5157.2135 C980.0725,5156.8925 980.4085,5156.5955 980.8135,5156.3225 C981.2205,5156.0485 981.6675,5155.7935 982.1555,5155.5585 L980.2495,5155.5195 L976.5655,5152.8125 L975.7695,5152.8915 L975.6395,5152.4055 L977.0715,5152.0025 L978.2495,5151.5935 L982.6235,5155.0345 L982.8115,5155.1655 L983.7905,5154.8605 L982.5675,5150.9255 L981.3745,5151.1495 L981.2635,5150.6575 L983.3485,5150.0515 L985.4475,5149.3565 L985.6355,5149.8255 Z" id="Fill-142" fill="#292A6E"></path>
                <path d="M968.8716,5161.4121 L969.1686,5162.2891 L970.5056,5157.2721 L966.9496,5157.6571 L968.8716,5161.4121 Z M970.6256,5156.6931 L971.4616,5153.7721 L970.1056,5153.7581 L970.0936,5153.2731 L971.7566,5153.1351 L973.2506,5152.9331 L973.3456,5153.4281 L972.2416,5153.6881 L969.4006,5163.3151 L968.1206,5164.0001 L963.1266,5154.6541 L961.9756,5154.6571 L961.9606,5154.1531 L964.2436,5153.9471 L966.4766,5153.6651 L966.5486,5154.1421 L965.2676,5154.4431 L966.6886,5157.1191 L970.6256,5156.6931 Z" id="Fill-144" fill="#292A6E"></path>
                <polygon id="Fill-146" fill="#292A6E" points="949.3398 5159.5459 948.7758 5159.3679 948.8018 5158.2759 949.0688 5157.3589 950.5388 5157.4369 951.0798 5157.6319 951.0308 5158.7399 950.7878 5159.6409"></polygon>
                <mask id="mask-2" fill="white">
                    <use xlink:href="#path-1"></use>
                </mask>
                <g id="Clip-149"></g>
                <path d="M939.922,5104.578 L980.078,5104.578 L980.078,5064.422 L939.922,5064.422 L939.922,5104.578 Z M937.306,5107.193 L982.693,5107.193 L982.693,5061.805 L937.306,5061.805 L937.306,5107.193 Z" id="Fill-148" fill="#292A6E" mask="url(#mask-2)"></path>
                <path d="M960,5063.1143 L938.614,5084.5003 L960,5105.8853 L981.386,5084.5003 L960,5063.1143 Z M960,5066.8133 L977.687,5084.5003 L960,5102.1863 L942.313,5084.5003 L960,5066.8133 Z" id="Fill-150" fill="#292A6E" mask="url(#mask-2)"></path>
                <polygon id="Fill-151" fill="#292A6E" mask="url(#mask-2)" points="958.686 5105.886 961.302 5105.886 961.302 5063.115 958.686 5063.115"></polygon>
                <polygon id="Fill-152" fill="#292A6E" mask="url(#mask-2)" points="958.686 5105.886 961.302 5105.886 961.302 5063.115 958.686 5063.115"></polygon>
            </g>
        </g>
    </g>
</svg>