<?xml version="1.0" encoding="UTF-8"?>
<svg width="80px" height="62px" viewBox="0 0 80 62" version="1.1" xmlns="http://www.w3.org/2000/svg" xmlns:xlink="http://www.w3.org/1999/xlink">
    <!-- Generator: Sketch 41 (35326) - http://www.bohemiancoding.com/sketch -->
    <title>Stroke 71</title>
    <desc>Created with Sketch.</desc>
    <defs></defs>
    <g id="Page-1" stroke="none" stroke-width="1" fill="none" fill-rule="evenodd">
        <g id="Marina-Square---Website-1920px" transform="translate(-1811.000000, -237.000000)" stroke="#24DCA4" stroke-width="4">
            <g id="Group-77" transform="translate(689.000000, 239.000000)">
                <path d="M1201.4546,57.1885 C1191.6046,57.1885 1191.6046,51.6055 1181.7536,51.6055 C1171.9026,51.6055 1171.9026,57.1885 1162.0516,57.1885 C1152.2006,57.1885 1152.2006,51.6055 1142.3496,51.6055 C1132.4986,51.6055 1132.4986,57.1885 1122.6466,57.1885 M1201.4546,40.2325 C1191.6046,40.2325 1191.6046,34.6505 1181.7536,34.6505 C1171.9026,34.6505 1171.9026,40.2325 1162.0516,40.2325 C1152.2006,40.2325 1152.2006,34.6505 1142.3496,34.6505 C1132.4986,34.6505 1132.4986,40.2325 1122.6466,40.2325 M1201.4546,23.2775 C1191.6046,23.2775 1191.6046,17.6945 1181.7536,17.6945 C1171.9026,17.6945 1171.9026,23.2775 1162.0516,23.2775 C1152.2006,23.2775 1152.2006,17.6945 1142.3496,17.6945 C1132.4986,17.6945 1132.4986,23.2775 1122.6466,23.2775 M1201.4546,6.3235 C1191.6046,6.3235 1191.6046,0.7395 1181.7536,0.7395 C1171.9026,0.7395 1171.9026,6.3235 1162.0516,6.3235 C1152.2006,6.3235 1152.2006,0.7395 1142.3496,0.7395 C1132.4986,0.7395 1132.4986,6.3235 1122.6466,6.3235" id="Stroke-71"></path>
            </g>
        </g>
    </g>
</svg>