<?xml version="1.0" encoding="UTF-8"?>
<svg width="80px" height="62px" viewBox="0 0 80 62" version="1.1" xmlns="http://www.w3.org/2000/svg" xmlns:xlink="http://www.w3.org/1999/xlink">
    <!-- Generator: Sketch 41 (35326) - http://www.bohemiancoding.com/sketch -->
    <title>Stroke 231</title>
    <desc>Created with Sketch.</desc>
    <defs></defs>
    <g id="Page-1" stroke="none" stroke-width="1" fill="none" fill-rule="evenodd">
        <g id="Marina-Square---Website-1920px" transform="translate(-1789.000000, -4535.000000)" stroke="#E8807A" stroke-width="4">
            <g id="Group-237" transform="translate(630.000000, 3.000000)">
                <path d="M1238.4546,4591.1885 C1228.6046,4591.1885 1228.6046,4585.6055 1218.7536,4585.6055 C1208.9026,4585.6055 1208.9026,4591.1885 1199.0516,4591.1885 C1189.2006,4591.1885 1189.2006,4585.6055 1179.3496,4585.6055 C1169.4986,4585.6055 1169.4986,4591.1885 1159.6466,4591.1885 M1238.4546,4574.2335 C1228.6046,4574.2335 1228.6046,4568.6505 1218.7536,4568.6505 C1208.9026,4568.6505 1208.9026,4574.2335 1199.0516,4574.2335 C1189.2006,4574.2335 1189.2006,4568.6505 1179.3496,4568.6505 C1169.4986,4568.6505 1169.4986,4574.2335 1159.6466,4574.2335 M1238.4546,4557.2785 C1228.6046,4557.2785 1228.6046,4551.6955 1218.7536,4551.6955 C1208.9026,4551.6955 1208.9026,4557.2785 1199.0516,4557.2785 C1189.2006,4557.2785 1189.2006,4551.6955 1179.3496,4551.6955 C1169.4986,4551.6955 1169.4986,4557.2785 1159.6466,4557.2785 M1238.4546,4540.3235 C1228.6046,4540.3235 1228.6046,4534.7405 1218.7536,4534.7405 C1208.9026,4534.7405 1208.9026,4540.3235 1199.0516,4540.3235 C1189.2006,4540.3235 1189.2006,4534.7405 1179.3496,4534.7405 C1169.4986,4534.7405 1169.4986,4540.3235 1159.6466,4540.3235" id="Stroke-231"></path>
            </g>
        </g>
    </g>
</svg>